<?xml version="1.0" encoding="UTF-8"?>
<svg version="1.1" xmlns="http://www.w3.org/2000/svg" width="430" height="640">
<path d="M0 0 C141.9 0 283.8 0 430 0 C430 211.2 430 422.4 430 640 C288.1 640 146.2 640 0 640 C0 428.8 0 217.6 0 0 Z " fill="#9B5518" transform="translate(0,0)"/>
<path d="M0 0 C5.069732 -0.08283271 10.13817241 -0.09711892 15.20849609 -0.09228516 C16.09653931 -0.09267792 16.98458252 -0.09307068 17.89953613 -0.09347534 C30.92526175 -0.08660677 43.76935495 0.37470562 56.71875 1.87792969 C59.91766011 2.19717503 63.12131667 2.24721615 66.33349609 2.34521484 C72.30995116 2.80131273 75.74170959 4.8652238 79.89599609 9.09521484 C80.47220703 9.68173828 81.04841797 10.26826172 81.64208984 10.87255859 C89.05400066 18.99544407 90.29162143 29.52760468 90.27099609 40.22021484 C90.26966675 41.52466553 90.26966675 41.52466553 90.26831055 42.85546875 C90.12315192 51.45445956 89.15305634 59.94733551 88.08349609 68.47021484 C88.00081482 69.1352301 87.91813354 69.80024536 87.83294678 70.4854126 C86.92513708 77.66786105 85.80257921 84.75115212 84.31787109 91.83740234 C83.38650395 96.31182949 82.67808428 100.64489733 82.36865234 105.20458984 C81.23027176 121.91284667 81.23027176 121.91284667 75.64379883 127.41845703 C73.17358888 129.49511315 70.58679564 131.31649151 67.89599609 133.09521484 C64.71663986 135.50762111 62.05514466 137.89215147 59.52099609 140.97021484 C56.68212772 144.3071303 53.69200233 147.12891388 50.27880859 149.86865234 C48.754965 151.06697023 48.754965 151.06697023 47.89599609 153.09521484 C47.23599609 153.09521484 46.57599609 153.09521484 45.89599609 153.09521484 C45.58662109 153.73458984 45.27724609 154.37396484 44.95849609 155.03271484 C43.89599609 157.09521484 43.89599609 157.09521484 42.89599609 158.09521484 C40.93505859 158.00927734 40.93505859 158.00927734 38.52099609 157.72021484 C37.72951172 157.62998047 36.93802734 157.53974609 36.12255859 157.44677734 C33.89599609 157.09521484 33.89599609 157.09521484 30.89599609 156.09521484 C30.89599609 154.44521484 30.89599609 152.79521484 30.89599609 151.09521484 C30.03696686 151.58506363 30.03696686 151.58506363 29.1605835 152.08480835 C26.74463573 153.16274833 25.2828735 153.32485214 22.66259766 153.26171875 C21.87276489 153.24328918 21.08293213 153.22485962 20.26916504 153.20587158 C16.71139659 153.03997903 13.17525687 152.77407071 9.63037109 152.43115234 C8.85511078 152.35868286 8.07985046 152.28621338 7.28109741 152.21154785 C4.73544721 151.97042568 2.19069615 151.7211559 -0.35400391 151.47021484 C-1.23606506 151.38451233 -2.11812622 151.29880981 -3.0269165 151.21051025 C-19.57429543 149.59117791 -36.04467109 147.49396945 -52.51123047 145.20214844 C-64.02385692 143.6035495 -75.53667909 142.23523584 -87.10400391 141.09521484 C-87.28987061 140.3360376 -87.4757373 139.57686035 -87.66723633 138.79467773 C-90.87544093 125.7275467 -94.0855594 112.68672171 -97.99853516 99.81005859 C-99.08088386 96.172908 -100.04102641 92.52192833 -100.97900391 88.84521484 C-102.11774159 84.44084097 -103.39800263 80.16787675 -104.90869141 75.87646484 C-105.22854004 74.96155273 -105.54838867 74.04664063 -105.87792969 73.10400391 C-106.50940077 71.31920569 -107.15530018 69.53941893 -107.81835938 67.76611328 C-109.94091166 61.76553176 -111.47452321 55.44413888 -110.10400391 49.09521484 C-107.66424408 46.7448544 -105.02941524 45.49366132 -101.90087891 44.26318359 C-101.09408691 43.94269043 -100.28729492 43.62219727 -99.45605469 43.29199219 C-98.59737793 42.95893066 -97.73870117 42.62586914 -96.85400391 42.28271484 C-95.95794434 41.93160645 -95.06188477 41.58049805 -94.13867188 41.21875 C-92.31480134 40.50613333 -90.48977222 39.79647457 -88.66357422 39.08984375 C-86.43698473 38.22460857 -84.218694 37.34194244 -82.00244141 36.45068359 C-70.9616085 32.07799233 -59.5946249 29.04624621 -48.10400391 26.09521484 C-47.39469727 25.91297363 -46.68539062 25.73073242 -45.95458984 25.54296875 C-42.67620906 24.70545663 -39.39386098 23.88644629 -36.10400391 23.09521484 C-36.15943359 22.21994141 -36.21486328 21.34466797 -36.27197266 20.44287109 C-36.08472355 16.71095279 -35.24109668 14.7636688 -33.41650391 11.53271484 C-32.91763672 10.62392578 -32.41876953 9.71513672 -31.90478516 8.77880859 C-27.08409328 1.59482742 -27.08409328 1.59482742 -23.15074158 0.60237122 C-20.77716665 0.37797915 -18.44519317 0.30867825 -16.06103516 0.29443359 C-15.18155716 0.27064133 -14.30207916 0.24684906 -13.39595032 0.22233582 C-8.93130096 0.11332214 -4.46523215 0.08581366 0 0 Z " fill="#FCC654" transform="translate(302.10400390625,431.90478515625)"/>
<path d="M0 0 C5.069732 -0.08283271 10.13817241 -0.09711892 15.20849609 -0.09228516 C16.09653931 -0.09267792 16.98458252 -0.09307068 17.89953613 -0.09347534 C30.92526175 -0.08660677 43.76935495 0.37470562 56.71875 1.87792969 C59.91766011 2.19717503 63.12131667 2.24721615 66.33349609 2.34521484 C72.30995116 2.80131273 75.74170959 4.8652238 79.89599609 9.09521484 C80.47220703 9.68173828 81.04841797 10.26826172 81.64208984 10.87255859 C86.68690667 16.4012907 88.19381564 20.50081632 87.89599609 28.09521484 C87.24373047 28.07201172 86.59146484 28.04880859 85.91943359 28.02490234 C78.65068499 27.78420306 78.65068499 27.78420306 71.89599609 30.09521484 C67.14482001 35.45822088 63.60705968 41.74199527 60.02099609 47.90771484 C56.11224115 54.53957313 52.11747021 60.89599954 47.41943359 67.00146484 C45.98812111 68.968602 44.90895854 70.88876199 43.89599609 73.09521484 C41.729143 72.95217819 39.562521 72.80563934 37.39599609 72.65771484 C35.58615234 72.53589844 35.58615234 72.53589844 33.73974609 72.41162109 C31.2454815 72.20630053 28.7552155 71.9399056 26.27539062 71.60229492 C21.51762551 70.99934114 16.77200784 70.82483538 11.98193359 70.66552734 C10.06654872 70.59183402 8.15118468 70.51759781 6.23583984 70.44287109 C3.26121206 70.33002185 0.28662451 70.22073828 -2.68847656 70.12109375 C-26.73319296 69.30106932 -26.73319296 69.30106932 -36.10400391 66.09521484 C-37.82088525 62.66145217 -37.34909393 58.71407119 -37.42041016 54.93115234 C-37.44119125 54.0239444 -37.46197235 53.11673645 -37.48338318 52.18203735 C-37.54887526 49.27817504 -37.60776204 46.3742208 -37.66650391 43.47021484 C-37.70968945 41.50405942 -37.75330375 39.53791337 -37.79736328 37.57177734 C-37.9045563 32.74635122 -38.00582472 27.92083244 -38.10400391 23.09521484 C-37.44400391 23.09521484 -36.78400391 23.09521484 -36.10400391 23.09521484 C-36.15943359 22.21994141 -36.21486328 21.34466797 -36.27197266 20.44287109 C-36.08472355 16.71095279 -35.24109668 14.7636688 -33.41650391 11.53271484 C-32.91763672 10.62392578 -32.41876953 9.71513672 -31.90478516 8.77880859 C-27.08409328 1.59482742 -27.08409328 1.59482742 -23.15074158 0.60237122 C-20.77716665 0.37797915 -18.44519317 0.30867825 -16.06103516 0.29443359 C-15.18155716 0.27064133 -14.30207916 0.24684906 -13.39595032 0.22233582 C-8.93130096 0.11332214 -4.46523215 0.08581366 0 0 Z " fill="#EEB042" transform="translate(302.10400390625,431.90478515625)"/>
<path d="M0 0 C0.76989258 0.04519775 1.53978516 0.09039551 2.33300781 0.13696289 C10.89340059 0.69204827 19.41157362 1.65861746 27.9375 2.59057617 C34.5732647 3.29829356 41.19983441 3.90325594 47.859375 4.3203125 C48.88632477 4.38470268 48.88632477 4.38470268 49.934021 4.45039368 C53.24418787 4.65375192 56.55430617 4.84158742 59.86621094 5.01538086 C61.05504883 5.08378174 62.24388672 5.15218262 63.46875 5.22265625 C65.03786133 5.30398804 65.03786133 5.30398804 66.63867188 5.38696289 C69.55643837 5.75716074 71.83326564 6.53531108 74.5 7.75 C73.05873854 10.80517402 71.34463939 13.64268265 69.58032227 16.52026367 C65.56636818 23.17934547 63.15361043 28.89520801 62.5 36.75 C62.37431641 38.24466797 62.37431641 38.24466797 62.24609375 39.76953125 C62.09023247 41.65718457 61.95368511 43.54661606 61.84375 45.4375 C61.5 47.75 61.5 47.75 59.5 50.75 C56.234375 51.078125 56.234375 51.078125 52.25 51 C50.94546875 50.98453125 49.6409375 50.9690625 48.296875 50.953125 C44.5 50.75 44.5 50.75 41.82739258 50.28222656 C37.71370719 49.62423007 33.61838971 49.32095356 29.46484375 49.03125 C28.59090469 48.96844849 27.71696564 48.90564697 26.81654358 48.84094238 C24.96332483 48.70849391 23.11000435 48.57746221 21.2565918 48.44775391 C18.4982382 48.25426067 15.74032689 48.05524151 12.98242188 47.85546875 C2.87364345 47.13410038 -7.22925685 46.51619464 -17.35792542 46.15002441 C-38.41756682 45.28947452 -38.41756682 45.28947452 -45.5 39.75 C-47.74343127 35.85599617 -47.74081289 32.30481655 -47.6875 27.875 C-47.68105469 26.70195313 -47.67460937 25.52890625 -47.66796875 24.3203125 C-47.49959456 20.74138213 -47.06523808 17.2861294 -46.5 13.75 C-10.92481029 -0.68997488 -10.92481029 -0.68997488 0 0 Z " fill="#EFB143" transform="translate(271.5,501.25)"/>
<path d="M0 0 C1.79496973 0.02987493 3.58873779 0.13497378 5.37890625 0.26953125 C7.08203979 0.39424805 7.08203979 0.39424805 8.81958008 0.52148438 C10.05474365 0.61751953 11.28990723 0.71355469 12.5625 0.8125 C14.47808716 0.95461914 14.47808716 0.95461914 16.43237305 1.09960938 C22.23419203 1.53533193 28.03307101 1.99350328 33.828125 2.51171875 C35.65622736 2.67473321 37.48435233 2.83749436 39.3125 3 C40.23417969 3.0822583 41.15585937 3.1645166 42.10546875 3.24926758 C48.70603492 3.80600062 55.30625023 4.18532624 61.921875 4.5 C62.79543137 4.5419751 63.66898773 4.5839502 64.5690155 4.62719727 C68.95807509 4.83594513 73.34728753 5.03314384 77.73754883 5.21484375 C79.36801069 5.28885596 80.99846358 5.36306612 82.62890625 5.4375 C83.74002777 5.47810547 83.74002777 5.47810547 84.87359619 5.51953125 C96.05190799 6.05190799 96.05190799 6.05190799 99 9 C99.09912839 10.49085365 99.13079747 11.98632452 99.1328125 13.48046875 C99.13410156 14.39763672 99.13539063 15.31480469 99.13671875 16.25976562 C99.13285156 17.22591797 99.12898438 18.19207031 99.125 19.1875 C99.12886719 20.13431641 99.13273437 21.08113281 99.13671875 22.05664062 C99.1300757 26.81638754 98.99094167 31.32055321 98 36 C92.19041672 36.06053133 86.51478033 35.89510465 80.734375 35.3359375 C79.95857086 35.2634227 79.18276672 35.1909079 78.38345337 35.11619568 C75.83834998 34.87514032 73.29414723 34.62593553 70.75 34.375 C69.87192688 34.28962982 68.99385376 34.20425964 68.08917236 34.11630249 C43.97644701 31.75478044 19.97936981 28.44017104 -4 25 C-2.68 24.67 -1.36 24.34 0 24 C-0.16226074 23.4330542 -0.32452148 22.8661084 -0.49169922 22.28198242 C-1.01324162 19.94055263 -1.12929733 17.88386637 -1.1328125 15.48828125 C-1.13410156 14.64845703 -1.13539063 13.80863281 -1.13671875 12.94335938 C-1.13285156 12.07517578 -1.12898437 11.20699219 -1.125 10.3125 C-1.12886719 9.43271484 -1.13273438 8.55292969 -1.13671875 7.64648438 C-1.13478516 6.39254883 -1.13478516 6.39254883 -1.1328125 5.11328125 C-1.13168457 4.34798096 -1.13055664 3.58268066 -1.12939453 2.79418945 C-1 1 -1 1 0 0 Z " fill="#EEB042" transform="translate(231,549)"/>
<path d="M0 0 C2.59341352 0.07530783 3.80569388 0.16002137 6.0625 1.5 C7.37144168 3.87245679 7.27870175 5.6460118 7.0625 8.3125 C7.7225 8.374375 8.3825 8.43625 9.0625 8.5 C18.14547456 10.95997228 24.43130348 17.72912542 29 25.6875 C30.35799515 30.32065992 30.32270507 34.52279928 30.0625 39.3125 C28.56799145 39.97094127 27.06649308 40.613521 25.5625 41.25 C24.30953125 41.78947266 24.30953125 41.78947266 23.03125 42.33984375 C16.67086239 44.42370759 10.13026528 44.48124007 3.5 44.4375 C2.72277588 44.43266602 1.94555176 44.42783203 1.14477539 44.42285156 C-1.2163888 44.39878016 -3.57668653 44.35943665 -5.9375 44.3125 C-6.64519531 44.29993164 -7.35289063 44.28736328 -8.08203125 44.27441406 C-24.63685856 43.88665759 -24.63685856 43.88665759 -29.9375 39.3125 C-31.77061254 33.90346348 -30.05249301 29.39781407 -27.9375 24.3125 C-24.27665439 17.59292154 -18.60211364 12.95638543 -11.9375 9.3125 C-9.12890625 8.62109375 -9.12890625 8.62109375 -6.9375 8.3125 C-6.81375 7.36375 -6.69 6.415 -6.5625 5.4375 C-5.61978571 0.72392853 -4.81391883 0.38205705 0 0 Z " fill="#FBC554" transform="translate(128.9375,134.6875)"/>
<path d="M0 0 C2.57765144 0.07471453 3.77757942 0.13787126 6 1.5 C7.0625 3.3125 7.0625 3.3125 7.2734375 5.74609375 C7.82668292 8.54756325 7.82668292 8.54756325 10.57421875 9.8671875 C11.62222656 10.30289063 12.67023438 10.73859375 13.75 11.1875 C22.87778922 15.41533586 26.59564015 21.08043301 30.25 30.3125 C31.09866763 33.44604201 31.21634046 36.0818503 31.0625 39.3125 C21.92032217 44.6053398 12.05027706 44.66175352 1.72265625 44.62817383 C-0.30263269 44.62501539 -2.32645303 44.64855107 -4.3515625 44.67382812 C-13.0630635 44.67809847 -21.99009562 44.28620219 -29.9375 40.3125 C-30.78100955 31.50251133 -28.77946423 25.32460562 -23.3984375 18.3046875 C-19.0714175 13.56752343 -13.8722728 10.6668797 -7.9375 8.3125 C-7.2775 8.3125 -6.6175 8.3125 -5.9375 8.3125 C-5.97875 7.36375 -6.02 6.415 -6.0625 5.4375 C-5.86914291 0.60357282 -4.73838743 0.37606249 0 0 Z " fill="#FCC656" transform="translate(65.9375,88.6875)"/>
<path d="M0 0 C1 2 1 2 0.09130859 5.07836914 C-0.38223188 6.3999791 -0.86382193 7.71872068 -1.3515625 9.03515625 C-1.60747162 9.74667343 -1.86338074 10.45819061 -2.12704468 11.19126892 C-2.95256329 13.48433278 -3.78791084 15.77363703 -4.625 18.0625 C-8.83287451 29.6070845 -12.69312754 41.16343766 -16 53 C-16.29229492 54.04599365 -16.58458984 55.0919873 -16.88574219 56.16967773 C-17.62137199 58.83969853 -18.34509114 61.51253195 -19.0625 64.1875 C-21.05029223 71.56677661 -23.11242861 78.91038515 -25.3359375 86.22265625 C-26.11929604 88.95953277 -26.11929604 88.95953277 -25.9140625 91.68359375 C-26 94 -26 94 -27.21875 95.828125 C-29.56319624 97.37052384 -30.75537397 97.17084266 -33.5 96.75 C-34.2734375 96.64171875 -35.046875 96.5334375 -35.84375 96.421875 C-38 96 -38 96 -41 95 C-40.6275142 60.70240673 -40.6275142 60.70240673 -36 49 C-35.76007324 48.37738281 -35.52014648 47.75476563 -35.27294922 47.11328125 C-31.14789838 36.55564013 -25.77076788 26.7345542 -20 17 C-19.37867188 15.93136719 -18.75734375 14.86273438 -18.1171875 13.76171875 C-9.0154928 -1.31934041 -9.0154928 -1.31934041 0 0 Z " fill="#EFB143" transform="translate(374,493)"/>
<path d="M0 0 C2.68476029 1.34238015 2.86112812 2.60678177 3.99609375 5.36328125 C4.38466553 6.29970459 4.7732373 7.23612793 5.17358398 8.20092773 C5.59067627 9.22774658 6.00776855 10.25456543 6.4375 11.3125 C6.87199463 12.36961182 7.30648926 13.42672363 7.75415039 14.51586914 C11.2102637 22.96503519 14.5868212 31.44606918 17.9375 39.9375 C18.39761475 41.1025708 18.85772949 42.2676416 19.33178711 43.46801758 C20.5734831 46.63848594 21.79393459 49.81582776 23 53 C23.29253662 53.75643799 23.58507324 54.51287598 23.88647461 55.29223633 C26.41718437 62.26162126 27.48113343 69.51963138 28.6875 76.8125 C28.91413999 78.13486405 29.14134984 79.45713057 29.36914062 80.77929688 C31 90.4306136 31 90.4306136 31 95 C27.04 95 23.08 95 19 95 C18.55269531 93.17597656 18.10539062 91.35195313 17.64453125 89.47265625 C14.68679033 77.48325683 11.69659008 65.5323613 8.10546875 53.71484375 C7.02312004 50.07769315 6.0629775 46.42671349 5.125 42.75 C3.98626231 38.34562613 2.70600128 34.0726619 1.1953125 29.78125 C0.87546387 28.86633789 0.55561523 27.95142578 0.22607422 27.00878906 C-0.40539687 25.22399084 -1.05129628 23.44420408 -1.71435547 21.67089844 C-3.83690775 15.67031692 -5.3705193 9.34892404 -4 3 C-1.97167969 1.18457031 -1.97167969 1.18457031 0 0 Z " fill="#EEB042" transform="translate(196,478)"/>
<path d="M0 0 C4.2498709 -0.08708752 8.49951239 -0.14042181 12.75 -0.1875 C13.9565625 -0.21263672 15.163125 -0.23777344 16.40625 -0.26367188 C17.56640625 -0.27333984 18.7265625 -0.28300781 19.921875 -0.29296875 C20.99018555 -0.3086792 22.05849609 -0.32438965 23.15917969 -0.34057617 C26.33115522 0.03970106 27.67217242 0.87106908 30 3 C29.875 5.75 29.875 5.75 29 9 C25.9375 11.375 25.9375 11.375 23 13 C23.54269531 13.37511719 24.08539063 13.75023437 24.64453125 14.13671875 C29.73666941 17.77920316 33.40062903 20.47869556 34.5 26.9375 C33.80387905 31.20124083 32.09463941 33.03991013 29 36 C23.28369723 38.729901 17.31145452 38.22404422 11.125 38.125 C10.05507813 38.11597656 8.98515625 38.10695313 7.8828125 38.09765625 C5.25497561 38.07419342 2.62760594 38.04136459 0 38 C0.66 37.34 1.32 36.68 2 36 C2.19954194 33.52586821 2.27989475 31.16612482 2.265625 28.69140625 C2.26753845 27.96888168 2.2694519 27.24635712 2.27142334 26.50193787 C2.27278504 24.97288668 2.26908964 23.44382393 2.26074219 21.91479492 C2.25005751 19.57509316 2.2606295 17.23616193 2.2734375 14.89648438 C2.2721156 13.41145664 2.26955257 11.92642938 2.265625 10.44140625 C2.26967346 9.7413295 2.27372192 9.04125275 2.27789307 8.31996155 C2.24257654 4.65626704 2.08995623 3.13493434 0 0 Z " fill="#E8A93F" transform="translate(250,232)"/>
<path d="M0 0 C4.06236402 -0.08729047 8.12448589 -0.14048992 12.1875 -0.1875 C13.91323242 -0.22520508 13.91323242 -0.22520508 15.67382812 -0.26367188 C17.34155273 -0.27817383 17.34155273 -0.27817383 19.04296875 -0.29296875 C20.06414795 -0.3086792 21.08532715 -0.32438965 22.13745117 -0.34057617 C25.47853263 0.05693416 27.34032775 0.96066821 30 3 C30.625 5.875 30.625 5.875 30 9 C27.625 11.75 27.625 11.75 25 14 C24.34 14.66 23.68 15.32 23 16 C23.54269531 16.85722656 24.08539063 17.71445313 24.64453125 18.59765625 C25.3674461 19.75244232 26.09008773 20.90739946 26.8125 22.0625 C27.34713867 22.90458008 27.34713867 22.90458008 27.89257812 23.76367188 C29.7266583 26.70829601 31.3138688 29.59762317 32.63671875 32.80859375 C33.77619346 36.02451895 33.77619346 36.02451895 36 38 C32.04 38 28.08 38 24 38 C24.12375 37.071875 24.2475 36.14375 24.375 35.1875 C24.39806893 29.57021621 21.30618596 24.38297129 18 20 C15.02319221 18.69620434 14.16772362 18.94409213 11 20 C10.94617894 22.62527189 10.90641687 25.24944713 10.875 27.875 C10.85824219 28.62136719 10.84148437 29.36773437 10.82421875 30.13671875 C10.8066041 32.09194461 10.89679811 34.04742021 11 36 C11.66 36.66 12.32 37.32 13 38 C8.71 38 4.42 38 0 38 C0.66 37.34 1.32 36.68 2 36 C2.19954194 33.52586821 2.27989475 31.16612482 2.265625 28.69140625 C2.26753845 27.96888168 2.2694519 27.24635712 2.27142334 26.50193787 C2.27278504 24.97288668 2.26908964 23.44382393 2.26074219 21.91479492 C2.25005751 19.57509316 2.2606295 17.23616193 2.2734375 14.89648438 C2.2721156 13.41145664 2.26955257 11.92642938 2.265625 10.44140625 C2.26967346 9.7413295 2.27372192 9.04125275 2.27789307 8.31996155 C2.24257654 4.65626704 2.08995623 3.13493434 0 0 Z " fill="#E8A93F" transform="translate(82,232)"/>
<path d="M0 0 C4.62 0 9.24 0 14 0 C14.33 1.65 14.66 3.3 15 5 C16.16064568 7.47243227 16.16064568 7.47243227 17.5625 9.8125 C18.24505859 10.99779297 18.24505859 10.99779297 18.94140625 12.20703125 C19.29074219 12.79871094 19.64007813 13.39039063 20 14 C24.66321738 9.65838382 26.73898381 6.30508094 28 0 C32.29 0 36.58 0 41 0 C40.67 0.66 40.34 1.32 40 2 C39.34 2 38.68 2 38 2 C38.09342811 6.80585058 38.19949659 11.61119094 38.31738281 16.41650391 C38.35570852 18.0518424 38.39055507 19.68726624 38.421875 21.32275391 C38.46744842 23.6712091 38.52545367 26.01907495 38.5859375 28.3671875 C38.59748871 29.10057343 38.60903992 29.83395935 38.62094116 30.58956909 C38.61868097 34.74977105 38.61868097 34.74977105 41 38 C36.71 38 32.42 38 28 38 C28.66 37.34 29.32 36.68 30 36 C30.27891147 32.98736275 30.27891147 32.98736275 30.1953125 29.4609375 C30.18886719 28.15898437 30.18242187 26.85703125 30.17578125 25.515625 C30.15906929 24.13541405 30.14213939 22.75520571 30.125 21.375 C30.11497006 19.98698548 30.10584423 18.59896411 30.09765625 17.2109375 C30.07401863 13.80711974 30.04106867 10.40364494 30 7 C29.70754395 7.47945068 29.41508789 7.95890137 29.11376953 8.45288086 C27.78933742 10.617626 26.45728658 12.77758084 25.125 14.9375 C24.66480469 15.69224609 24.20460937 16.44699219 23.73046875 17.22460938 C23.06337891 18.30258789 23.06337891 18.30258789 22.3828125 19.40234375 C21.97434082 20.06741943 21.56586914 20.73249512 21.14501953 21.41772461 C20 23 20 23 18 24 C14.7 18.39 11.4 12.78 8 7 C7.93108747 10.93311899 7.87137093 14.86469815 7.83520508 18.7980957 C7.81271667 20.79327701 7.77459802 22.78826213 7.73632812 24.78320312 C7.72666016 26.03681641 7.71699219 27.29042969 7.70703125 28.58203125 C7.6913208 29.73936768 7.67561035 30.8967041 7.65942383 32.08911133 C7.73677992 35.35692447 7.73677992 35.35692447 11 38 C7.37 38 3.74 38 0 38 C0.66 37.34 1.32 36.68 2 36 C2.19954194 33.52586821 2.27989475 31.16612482 2.265625 28.69140625 C2.26753845 27.96888168 2.2694519 27.24635712 2.27142334 26.50193787 C2.27278504 24.97288668 2.26908964 23.44382393 2.26074219 21.91479492 C2.25005751 19.57509316 2.2606295 17.23616193 2.2734375 14.89648438 C2.2721156 13.41145664 2.26955257 11.92642938 2.265625 10.44140625 C2.26967346 9.7413295 2.27372192 9.04125275 2.27789307 8.31996155 C2.24257654 4.65626704 2.08995623 3.13493434 0 0 Z " fill="#E8AA3F" transform="translate(202,232)"/>
<path d="M0 0 C4.95 0 9.9 0 15 0 C15.33 1.65 15.66 3.3 16 5 C16.79971495 6.79608112 17.65544586 8.56816512 18.5625 10.3125 C19.01753906 11.19550781 19.47257812 12.07851563 19.94140625 12.98828125 C20.29074219 13.65214844 20.64007813 14.31601562 21 15 C22.17773651 13.25743068 23.34183179 11.50563593 24.5 9.75 C25.1496875 8.77546875 25.799375 7.8009375 26.46875 6.796875 C28.32014991 3.94667146 28.32014991 3.94667146 28 0 C32.62 0 37.24 0 42 0 C41.01 0.99 40.02 1.98 39 3 C38.53487955 6.22861502 38.53487955 6.22861502 38.6015625 9.93359375 C38.59725723 10.94511253 38.59725723 10.94511253 38.59286499 11.97706604 C38.59082577 13.40179281 38.59634587 14.82654767 38.60888672 16.2512207 C38.62491955 18.42658504 38.60904849 20.60008465 38.58984375 22.77539062 C38.5918267 24.16146242 38.59567145 25.54753306 38.6015625 26.93359375 C38.60494629 28.19228271 38.60833008 29.45097168 38.61181641 30.74780273 C38.77123772 34.39075551 38.77123772 34.39075551 42 38 C37.38 38 32.76 38 28 38 C29.485 37.505 29.485 37.505 31 37 C31 27.1 31 17.2 31 7 C27.37 12.61 23.74 18.22 20 24 C16.87251006 20.87251006 14.9304232 17.63000739 12.8125 13.8125 C11.554375 11.564375 10.29625 9.31625 9 7 C9 16.9 9 26.8 9 37 C9.66 37.33 10.32 37.66 11 38 C7.7 38 4.4 38 1 38 C1.99 37.505 1.99 37.505 3 37 C3.07415168 32.21284377 3.12860204 27.42602173 3.16479492 22.63842773 C3.17988243 21.00978777 3.20035506 19.38118844 3.22631836 17.75268555 C3.26270449 15.41184465 3.2797262 13.07154081 3.29296875 10.73046875 C3.30845261 10.00224411 3.32393646 9.27401947 3.33988953 8.52372742 C3.37441932 6.22396432 3.37441932 6.22396432 3 3 C2.01 2.01 1.02 1.02 0 0 Z " fill="#EBAD41" transform="translate(124,292)"/>
<path d="M0 0 C3.96 0 7.92 0 12 0 C12.061875 1.02351563 12.12375 2.04703125 12.1875 3.1015625 C13.02806076 9.81716939 15.67296192 16.06082003 18 22.375 C18.46948757 23.67030582 18.93824361 24.96587703 19.40625 26.26171875 C21.47996373 32.22438649 21.47996373 32.22438649 24 38 C20.04 38 16.08 38 12 38 C12.33 37.34 12.66 36.68 13 36 C13.27678279 31.84825808 13.12095361 28.63592047 11 25 C7.05771135 22.79695634 2.37264931 22.0375778 -2 21 C-2.12375 21.78375 -2.2475 22.5675 -2.375 23.375 C-3.16126424 27.9353326 -4.07700416 32.46567093 -5 37 C-4.34 37.33 -3.68 37.66 -3 38 C-6.63 38 -10.26 38 -14 38 C-12.91138672 36.39511719 -12.91138672 36.39511719 -11.80078125 34.7578125 C-8.47437983 29.42853022 -6.35383555 23.75041922 -4.1875 17.875 C-3.78080078 16.81667969 -3.37410156 15.75835937 -2.95507812 14.66796875 C-2.37983398 13.12689453 -2.37983398 13.12689453 -1.79296875 11.5546875 C-1.4477417 10.63155762 -1.10251465 9.70842773 -0.74682617 8.75732422 C0.26143206 5.51089045 0.26143206 5.51089045 0 0 Z " fill="#E9AB40" transform="translate(247,292)"/>
<path d="M0 0 C3.96 0 7.92 0 12 0 C12.061875 1.02351563 12.12375 2.04703125 12.1875 3.1015625 C13.02806076 9.81716939 15.67296192 16.06082003 18 22.375 C18.46948757 23.67030582 18.93824361 24.96587703 19.40625 26.26171875 C21.47996373 32.22438649 21.47996373 32.22438649 24 38 C20.04 38 16.08 38 12 38 C12.33 37.34 12.66 36.68 13 36 C13.27678279 31.84825808 13.12095361 28.63592047 11 25 C7.05771135 22.79695634 2.37264931 22.0375778 -2 21 C-2.12375 21.78375 -2.2475 22.5675 -2.375 23.375 C-3.16126424 27.9353326 -4.07700416 32.46567093 -5 37 C-4.34 37.33 -3.68 37.66 -3 38 C-6.63 38 -10.26 38 -14 38 C-12.91138672 36.39511719 -12.91138672 36.39511719 -11.80078125 34.7578125 C-8.47437983 29.42853022 -6.35383555 23.75041922 -4.1875 17.875 C-3.78080078 16.81667969 -3.37410156 15.75835937 -2.95507812 14.66796875 C-2.37983398 13.12689453 -2.37983398 13.12689453 -1.79296875 11.5546875 C-1.4477417 10.63155762 -1.10251465 9.70842773 -0.74682617 8.75732422 C0.26143206 5.51089045 0.26143206 5.51089045 0 0 Z " fill="#E9AB40" transform="translate(96,292)"/>
<path d="M0 0 C3.96 0 7.92 0 12 0 C12.061875 1.02351562 12.12375 2.04703125 12.1875 3.1015625 C13.02806076 9.81716939 15.67296192 16.06082003 18 22.375 C18.46948757 23.67030582 18.93824361 24.96587703 19.40625 26.26171875 C21.47996373 32.22438649 21.47996373 32.22438649 24 38 C20.04 38 16.08 38 12 38 C12.33 37.34 12.66 36.68 13 36 C13.27678279 31.84825808 13.12095361 28.63592047 11 25 C7.05771135 22.79695634 2.37264931 22.0375778 -2 21 C-2.12375 21.78375 -2.2475 22.5675 -2.375 23.375 C-3.16126424 27.9353326 -4.07700416 32.46567093 -5 37 C-4.34 37.33 -3.68 37.66 -3 38 C-6.63 38 -10.26 38 -14 38 C-12.91138672 36.39511719 -12.91138672 36.39511719 -11.80078125 34.7578125 C-8.47437983 29.42853022 -6.35383555 23.75041922 -4.1875 17.875 C-3.78080078 16.81667969 -3.37410156 15.75835937 -2.95507812 14.66796875 C-2.37983398 13.12689453 -2.37983398 13.12689453 -1.79296875 11.5546875 C-1.4477417 10.63155762 -1.10251465 9.70842773 -0.74682617 8.75732422 C0.26143206 5.51089045 0.26143206 5.51089045 0 0 Z " fill="#E9AB40" transform="translate(364,232)"/>
<path d="M0 0 C4.29 0 8.58 0 13 0 C12.67 1.65 12.34 3.3 12 5 C12.64085859 7.50678687 13.34419963 9.78758757 14.23828125 12.19921875 C14.47910934 12.87547806 14.71993744 13.55173737 14.96806335 14.24848938 C15.47768969 15.67174487 15.99326412 17.09288287 16.5144043 18.51196289 C17.31200156 20.68614131 18.09001777 22.86658234 18.86523438 25.04882812 C19.36344995 26.43270023 19.8627615 27.81617835 20.36328125 29.19921875 C20.59670731 29.85129807 20.83013336 30.50337738 21.07063293 31.17521667 C22.10603876 33.97744553 22.86076013 35.86076013 25 38 C20.71 38 16.42 38 12 38 C12.99 37.505 12.99 37.505 14 37 C13.29057447 29.98314852 13.29057447 29.98314852 9.3125 24.4375 C5.80833783 22.91682585 2.79715599 22.30377248 -1 22 C-3.02208442 26.88670402 -4.51198891 30.62411642 -4 36 C-3.67 36.66 -3.34 37.32 -3 38 C-6.63 38 -10.26 38 -14 38 C-13.39841064 37.31301025 -12.79682129 36.62602051 -12.17700195 35.91821289 C-9.84334475 32.79000783 -8.56366822 29.9468867 -7.16796875 26.30859375 C-6.92710037 25.68146988 -6.68623199 25.05434601 -6.43806458 24.40821838 C-5.93533695 23.09134683 -5.43724344 21.7726976 -4.94360352 20.45239258 C-4.18627762 18.43424255 -3.40764503 16.4252249 -2.62695312 14.41601562 C-2.1393229 13.13070158 -1.65295034 11.84490953 -1.16796875 10.55859375 C-0.72735107 9.39642334 -0.2867334 8.23425293 0.16723633 7.03686523 C1.3090194 3.84644007 1.3090194 3.84644007 0 0 Z " fill="#E9AA40" transform="translate(173,232)"/>
<path d="M0 0 C0.99 0.33 1.98 0.66 3 1 C3 45.22 3 89.44 3 135 C1.68 135 0.36 135 -1 135 C-1.02332844 117.54584265 -1.0409789 100.09169015 -1.05181217 82.63752079 C-1.05697525 74.53381391 -1.06401816 66.43011669 -1.07543945 58.32641602 C-1.08538594 51.26577878 -1.09185334 44.20514854 -1.09408849 37.14450449 C-1.09539566 33.40365542 -1.09848189 29.66282638 -1.10573006 25.92198372 C-1.11374324 21.75274887 -1.11399116 17.58354916 -1.11352539 13.41430664 C-1.11712067 12.16490295 -1.12071594 10.91549927 -1.12442017 9.62823486 C-1.1230455 8.49936356 -1.12167084 7.37049225 -1.12025452 6.20741272 C-1.12117631 5.22017243 -1.1220981 4.23293215 -1.12304783 3.21577549 C-1 1 -1 1 0 0 Z " fill="#49433E" transform="translate(128,0)"/>
<path d="M0 0 C4.95 0 9.9 0 15 0 C15.66 1.32 16.32 2.64 17 4 C18.61133523 5.61950078 20.28441089 7.17887876 22 8.6875 C23.3303125 9.86892578 23.3303125 9.86892578 24.6875 11.07421875 C26.83776851 13.01418249 26.83776851 13.01418249 29 14 C28.91276622 12.22825181 28.80458345 10.45752623 28.6875 8.6875 C28.62949219 7.70136719 28.57148438 6.71523438 28.51171875 5.69921875 C28.1920644 2.62903959 28.1920644 2.62903959 25 0 C28.63 0 32.26 0 36 0 C35.34 0.66 34.68 1.32 34 2 C33.8004303 4.55750453 33.72013174 7.00438141 33.734375 9.5625 C33.73246155 10.30959229 33.7305481 11.05668457 33.72857666 11.82641602 C33.72721502 13.40674171 33.73091 14.98707858 33.73925781 16.56738281 C33.749958 18.99048922 33.73936221 21.41285423 33.7265625 23.8359375 C33.7278841 25.36979331 33.7304465 26.90364865 33.734375 28.4375 C33.73032654 29.16461182 33.72627808 29.89172363 33.72210693 30.64086914 C33.63268498 34.77469633 33.63268498 34.77469633 36 38 C32.37 38 28.74 38 25 38 C25.99 37.01 26.98 36.02 28 35 C29.18785962 30.79380856 29.12208814 27.21663614 28 23 C24.52587053 18.62768096 20.45601487 15.32738528 16 12 C15.27683594 11.4544043 14.55367187 10.90880859 13.80859375 10.34667969 C11.87635245 8.89238696 9.94005956 7.44383765 8 6 C8.09346313 10.23623542 8.19953913 14.47190851 8.31738281 18.70751953 C8.35569674 20.1488374 8.39054543 21.59025168 8.421875 23.03173828 C8.46747446 25.10223886 8.52547444 27.17207433 8.5859375 29.2421875 C8.6173584 30.4885498 8.6487793 31.73491211 8.68115234 33.01904297 C8.69682309 36.11541776 8.69682309 36.11541776 11 38 C7.37 38 3.74 38 0 38 C0.99 36.68 1.98 35.36 3 34 C3.46205914 30.66245792 3.46205914 30.66245792 3.3984375 26.93359375 C3.40130768 26.25829117 3.40417786 25.58298859 3.40713501 24.88722229 C3.40917071 23.4642757 3.40367532 22.0413008 3.39111328 20.6184082 C3.37502537 18.44093381 3.39098927 16.2653082 3.41015625 14.08789062 C3.40817422 12.70312091 3.40433137 11.31835234 3.3984375 9.93359375 C3.39505371 8.67603271 3.39166992 7.41847168 3.38818359 6.12280273 C3.28363191 2.66915213 3.28363191 2.66915213 0 0 Z " fill="#E7A93F" transform="translate(193,292)"/>
<path d="M0 0 C9.24 0 18.48 0 28 0 C28.66 3.63 29.32 7.26 30 11 C29.113125 10.21625 28.22625 9.4325 27.3125 8.625 C21.95138749 4.21364169 17.7853348 3.76998865 11 4 C10.67 6.31 10.34 8.62 10 11 C11.64666203 10.8864371 13.29236082 10.75882619 14.9375 10.625 C15.85402344 10.55539062 16.77054687 10.48578125 17.71484375 10.4140625 C18.46894531 10.27742188 19.22304688 10.14078125 20 10 C20.33 9.34 20.66 8.68 21 8 C22.29243536 12.1196377 23.26252625 15.66831683 23 20 C22.34 19.195625 21.68 18.39125 21 17.5625 C17.63077214 14.20884131 17.63077214 14.20884131 10 14 C10.33 20.6 10.66 27.2 11 34 C20.06364607 34.48506875 20.06364607 34.48506875 27 31 C28.83853564 29.08343632 30.39301896 27.12688667 32 25 C32.495 25.99 32.495 25.99 33 27 C31.68 30.63 30.36 34.26 29 38 C19.43 38 9.86 38 0 38 C0.66 37.34 1.32 36.68 2 36 C2.19954194 33.52586821 2.27989475 31.16612482 2.265625 28.69140625 C2.26753845 27.96888168 2.2694519 27.24635712 2.27142334 26.50193787 C2.27278504 24.97288668 2.26908964 23.44382393 2.26074219 21.91479492 C2.25005751 19.57509316 2.2606295 17.23616193 2.2734375 14.89648438 C2.2721156 13.41145664 2.26955257 11.92642938 2.265625 10.44140625 C2.26967346 9.7413295 2.27372192 9.04125275 2.27789307 8.31996155 C2.24257654 4.65626704 2.08995623 3.13493434 0 0 Z " fill="#E8A93F" transform="translate(311,292)"/>
<path d="M0 0 C0.74958984 0.05220703 1.49917969 0.10441406 2.27148438 0.15820312 C4.11887082 0.28763784 5.96574371 0.42436518 7.8125 0.5625 C8.1425 3.5325 8.4725 6.5025 8.8125 9.5625 C7.86375 8.7375 6.915 7.9125 5.9375 7.0625 C1.42308882 3.77170745 -2.80206845 4.07488547 -8.1875 4.5625 C-8.5175 6.2125 -8.8475 7.8625 -9.1875 9.5625 C-5.96407047 10.99513535 -2.81082787 12.36243043 0.55078125 13.44140625 C6.68487552 15.42523376 10.55706227 16.83741985 13.8125 22.5625 C14.51256441 26.91845632 14.15668399 28.92330116 12.0625 32.8125 C9.19881851 36.31255516 7.09659802 38.13446733 2.8125 39.5625 C-3.23571659 39.97543045 -9.19316248 39.32368572 -15.1875 38.5625 C-15.72091184 36.98335985 -16.23875763 35.39895613 -16.75 33.8125 C-17.04003906 32.93078125 -17.33007812 32.0490625 -17.62890625 31.140625 C-18.20447435 28.48415684 -18.07998371 27.09218894 -17.1875 24.5625 C-16.3521875 26.2021875 -16.3521875 26.2021875 -15.5 27.875 C-13.47668096 31.32161933 -12.0670919 33.15924336 -8.1875 34.5625 C-1.28171491 35.34608326 -1.28171491 35.34608326 5.125 33.2265625 C7.11528243 31.59857471 7.11528243 31.59857471 7.25 28.5625 C6.75985146 25.20148145 6.3501049 24.64108422 3.8125 22.5625 C1.95538229 21.67329634 1.95538229 21.67329634 -0.09375 21.0625 C-0.83753906 20.815 -1.58132813 20.5675 -2.34765625 20.3125 C-3.11980469 20.065 -3.89195312 19.8175 -4.6875 19.5625 C-6.22144152 19.07081924 -7.75283156 18.57108985 -9.28125 18.0625 C-9.95865234 17.8459375 -10.63605469 17.629375 -11.33398438 17.40625 C-13.51615588 16.41289058 -14.71166889 15.45263878 -16.1875 13.5625 C-16.58669236 10.46875918 -16.81663952 8.52349607 -16.1875 5.5625 C-11.36147287 -0.56785878 -7.31385174 -0.55572498 0 0 Z " fill="#E8AA3F" transform="translate(366.1875,291.4375)"/>
<path d="M0 0 C0.80179688 0.05220703 1.60359375 0.10441406 2.4296875 0.15820312 C4.41179103 0.28798371 6.39344499 0.42459735 8.375 0.5625 C8.705 3.8625 9.035 7.1625 9.375 10.5625 C8.611875 9.758125 7.84875 8.95375 7.0625 8.125 C3.63683024 4.85866372 1.37098598 4.42248028 -3.1875 4.4375 C-4.36505859 4.43363281 -4.36505859 4.43363281 -5.56640625 4.4296875 C-7.68938977 4.43273634 -7.68938977 4.43273634 -9.625 5.5625 C-9.625 7.2125 -9.625 8.8625 -9.625 10.5625 C-8.92375 10.74425781 -8.2225 10.92601562 -7.5 11.11328125 C10.15005927 15.78958771 10.15005927 15.78958771 13.375 20.5625 C14.49991289 25.21213994 14.81316997 27.40134959 13.125 31.875 C10.06242737 36.57823654 7.94045752 38.19738778 2.375 39.5625 C-3.37689354 39.84538001 -8.9221234 39.30176178 -14.625 38.5625 C-15.15841184 36.98335985 -15.67625763 35.39895613 -16.1875 33.8125 C-16.47753906 32.93078125 -16.76757812 32.0490625 -17.06640625 31.140625 C-17.64197435 28.48415684 -17.51748371 27.09218894 -16.625 24.5625 C-16.31046875 25.11679687 -15.9959375 25.67109375 -15.671875 26.2421875 C-15.02992187 27.32886719 -15.02992187 27.32886719 -14.375 28.4375 C-13.95734375 29.15679687 -13.5396875 29.87609375 -13.109375 30.6171875 C-11.40194437 32.85482027 -10.26660217 33.62733427 -7.625 34.5625 C-5.17156978 34.87688484 -5.17156978 34.87688484 -2.625 34.8125 C-1.779375 34.81765625 -0.93375 34.8228125 -0.0625 34.828125 C2.58119574 34.54002995 4.18381189 34.06740996 6.375 32.5625 C7.45833333 29.14583333 7.45833333 29.14583333 7.375 25.5625 C4.68834062 21.48688842 -0.57348312 20.82878468 -5 19.54492188 C-9.28722342 18.22544773 -12.45358367 16.76995515 -15.625 13.5625 C-16.14280959 10.3002996 -16.40409754 8.63019655 -15.625 5.5625 C-10.69567586 -0.53429565 -7.41340994 -0.5235119 0 0 Z " fill="#E8AA3F" transform="translate(61.625,231.4375)"/>
<path d="M0 0 C0.680625 1.7015625 0.680625 1.7015625 1.375 3.4375 C2.57095806 7.04721692 2.57095806 7.04721692 5 8 C10.88165736 8.46588282 10.88165736 8.46588282 16 6 C17.21284876 2.94570927 17.21284876 2.94570927 18 0 C24.79367615 -0.39027501 31.86942035 -0.31918252 38 3 C38.77734375 5.109375 38.77734375 5.109375 39 7 C37.50549145 7.65844127 36.00399308 8.301021 34.5 8.9375 C33.6646875 9.29714844 32.829375 9.65679687 31.96875 10.02734375 C25.60836239 12.11120759 19.06776528 12.16874007 12.4375 12.125 C11.27166382 12.11774902 11.27166382 12.11774902 10.08227539 12.11035156 C7.7211112 12.08628016 5.36081347 12.04693665 3 12 C2.29230469 11.98743164 1.58460937 11.97486328 0.85546875 11.96191406 C-15.0364289 11.5896851 -15.0364289 11.5896851 -21 7 C-22.0625 4.25 -22.0625 4.25 -22 2 C-21.01 2.495 -21.01 2.495 -20 3 C-18.48169008 2.58246477 -16.98346756 2.09063323 -15.5 1.5625 C-10.22541446 -0.12905804 -5.49623625 -0.31574123 0 0 Z " fill="#EDB044" transform="translate(120,167)"/>
<path d="M0 0 C0.26554687 0.56589844 0.53109375 1.13179688 0.8046875 1.71484375 C1.15789063 2.44832031 1.51109375 3.18179688 1.875 3.9375 C2.22304688 4.66839844 2.57109375 5.39929688 2.9296875 6.15234375 C3.8684977 8.16332459 3.8684977 8.16332459 6 9 C8.87306228 9.50095023 8.87306228 9.50095023 12 9 C15.28328232 6.3136781 17.2160524 3.79494309 19 0 C32.6332574 0.59453303 32.6332574 0.59453303 39 4 C39.33 3.01 39.66 2.02 40 1 C40 2.98 40 4.96 40 7 C30.85782217 12.2928398 20.98777706 12.34925352 10.66015625 12.31567383 C8.63486731 12.31251539 6.61104697 12.33605107 4.5859375 12.36132812 C-4.1255635 12.36559847 -13.05259562 11.97370219 -21 8 C-21 6.68 -21 5.36 -21 4 C-14.10938143 0.55469072 -7.64384504 0 0 0 Z " fill="#EDB043" transform="translate(57,121)"/>
<path d="M0 0 C2.56616632 3.84924948 2.55097676 6.4349304 3 11 C2.63390625 10.566875 2.2678125 10.13375 1.890625 9.6875 C-1.86053993 5.82915893 -4.70010633 4.49110639 -10.125 4.25 C-14.25902037 4.44277375 -14.25902037 4.44277375 -17.84765625 6.2890625 C-21.44085373 10.54223503 -22.41815932 14.03159792 -22.33984375 19.41796875 C-21.63587022 24.76654922 -19.34894438 29.82959771 -15.35546875 33.51953125 C-11.2908556 36.11611256 -7.70279831 36.59853797 -3 36 C1.72061191 34.27516103 3.80210057 32.51790439 6 28 C6.66 28.33 7.32 28.66 8 29 C6.35 32.63 4.7 36.26 3 40 C-7.42706284 40.49456425 -15.39095576 40.48723539 -23.8125 33.75 C-28.38414773 28.00278571 -30.79027908 22.9352135 -30.4453125 15.4609375 C-29.39705288 9.66792382 -26.65297864 6.15541958 -21.8984375 2.83203125 C-17.61043181 0.50919722 -13.49246435 0.23088913 -8.6875 0.0625 C-7.87732422 0.00771484 -7.06714844 -0.04707031 -6.23242188 -0.10351562 C-3.88671875 -0.21484375 -3.88671875 -0.21484375 0 0 Z " fill="#E8A93F" transform="translate(340,231)"/>
<path d="M0 0 C9.9 0 19.8 0 30 0 C30.66 3.63 31.32 7.26 32 11 C31.01 10.01 30.02 9.02 29 8 C29 7.34 29 6.68 29 6 C25.37 5.01 21.74 4.02 18 3 C18.09343603 7.66344559 18.19950614 12.32636586 18.31738281 16.98925781 C18.35570585 18.57609138 18.39055288 20.16301281 18.421875 21.75 C18.46745431 24.02896566 18.52545838 26.30732468 18.5859375 28.5859375 C18.59748871 29.29744965 18.60903992 30.00896179 18.62094116 30.74203491 C18.63408239 34.82103657 18.63408239 34.82103657 21 38 C16.71 38 12.42 38 8 38 C8.99 37.01 9.98 36.02 11 35 C11.3307063 32.49271968 11.4882718 30.21862613 11.51171875 27.70703125 C11.52966995 27.00100266 11.54762115 26.29497406 11.56611633 25.56755066 C11.62023178 23.31592759 11.65411722 21.06451657 11.6875 18.8125 C11.72067219 17.28447569 11.75516177 15.75647937 11.79101562 14.22851562 C11.87595825 10.48583011 11.94276248 6.74320759 12 3 C10.37442395 3.43222215 8.75271977 3.8790258 7.1328125 4.33203125 C5.77760498 4.7029187 5.77760498 4.7029187 4.39501953 5.08129883 C1.73202706 5.86914619 1.73202706 5.86914619 -0.125 8.6875 C-0.41375 9.450625 -0.7025 10.21375 -1 11 C-1.66 10.67 -2.32 10.34 -3 10 C-2.01 6.7 -1.02 3.4 0 0 Z " fill="#EBAD41" transform="translate(275,292)"/>
<path d="M0 0 C0.99 0.33 1.98 0.66 3 1 C3 30.04 3 59.08 3 89 C1.68 89 0.36 89 -1 89 C-1.02312241 77.54349984 -1.04091457 66.08700519 -1.05181217 54.63048649 C-1.05704122 49.31134787 -1.06413927 43.99222516 -1.07543945 38.6730957 C-1.08626755 33.54436015 -1.09227667 28.41563994 -1.09487724 23.28689384 C-1.09673163 21.32558386 -1.10035251 19.36427476 -1.10573006 17.40297127 C-1.11293946 14.66584553 -1.11399099 11.92878403 -1.11352539 9.19165039 C-1.11712067 8.37238068 -1.12071594 7.55311096 -1.12442017 6.70901489 C-1.11405216 1.11405216 -1.11405216 1.11405216 0 0 Z " fill="#49433E" transform="translate(65,0)"/>
<path d="M0 0 C10.74998819 -0.03169879 21.4999721 -0.05134486 32.25 -0.0625 C33.06888828 -0.06335602 33.88777657 -0.06421204 34.73147964 -0.06509399 C63.71983047 -0.09174689 92.70160311 0.13119732 121.6875 0.5 C123.09788292 0.51793673 123.09788292 0.51793673 124.53675842 0.53623581 C136.02461461 0.6830394 147.51235479 0.83752985 159 1 C159 1.33 159 1.66 159 2 C129.74787177 2.8170105 100.49216766 3.20217024 71.23124313 3.52910233 C68.27566834 3.56221245 65.3201001 3.59586503 62.36453247 3.62960815 C41.57590633 3.86560289 20.79029686 4.08099114 0 4 C0 2.68 0 1.36 0 0 Z " fill="#DA9938" transform="translate(227,360)"/>
<path d="M0 0 C2.59341352 0.07530783 3.80569388 0.16002137 6.0625 1.5 C7.37144168 3.87245679 7.27870175 5.6460118 7.0625 8.3125 C7.7225 8.374375 8.3825 8.43625 9.0625 8.5 C16.51861234 10.51936376 21.48301234 15.29324917 26.0625 21.3125 C14.85519793 21.97175306 3.05029064 19.34666274 -5.59765625 11.87890625 C-6.7589809 10.73699093 -7.85761819 9.5317214 -8.9375 8.3125 C-8.2775 8.3125 -7.6175 8.3125 -6.9375 8.3125 C-6.81375 7.36375 -6.69 6.415 -6.5625 5.4375 C-5.61978571 0.72392853 -4.81391883 0.38205705 0 0 Z " fill="#EDAF42" transform="translate(128.9375,134.6875)"/>
<path d="M0 0 C4.62 0 9.24 0 14 0 C12.515 1.485 12.515 1.485 11 3 C10.73846714 5.51727719 10.6502078 7.78103966 10.70703125 10.29296875 C10.71127609 10.99899734 10.71552094 11.70502594 10.71989441 12.43244934 C10.73666966 14.68452303 10.77431757 16.93569742 10.8125 19.1875 C10.82754843 20.71548185 10.84123656 22.24347776 10.85351562 23.77148438 C10.88656911 27.51466872 10.93834168 31.25718196 11 35 C12.76215183 34.72847939 14.52219865 34.4432748 16.28125 34.15234375 C17.26158203 33.99499756 18.24191406 33.83765137 19.25195312 33.67553711 C23.31142381 32.67761996 25.1021072 30.97034012 28 28 C28.99882145 26.99882284 29.99854546 25.99854334 31 25 C30.52140759 26.60433809 30.04210442 28.20846416 29.5625 29.8125 C29.29566406 30.70582031 29.02882813 31.59914063 28.75390625 32.51953125 C28.19612127 34.35473055 27.60655425 36.18033726 27 38 C18.09 38 9.18 38 0 38 C0.99 36.68 1.98 35.36 3 34 C3.46205914 30.66245792 3.46205914 30.66245792 3.3984375 26.93359375 C3.40130768 26.25829117 3.40417786 25.58298859 3.40713501 24.88722229 C3.40917071 23.4642757 3.40367532 22.0413008 3.39111328 20.6184082 C3.37502537 18.44093381 3.39098927 16.2653082 3.41015625 14.08789062 C3.40817422 12.70312091 3.40433137 11.31835234 3.3984375 9.93359375 C3.39505371 8.67603271 3.39166992 7.41847168 3.38818359 6.12280273 C3.28363191 2.66915213 3.28363191 2.66915213 0 0 Z " fill="#ECAE41" transform="translate(50,292)"/>
<path d="M0 0 C2.57765144 0.07471453 3.77757942 0.13787126 6 1.5 C7.0625 3.3125 7.0625 3.3125 7.26953125 5.73828125 C7.83227368 8.55223676 7.83227368 8.55223676 10.609375 9.9375 C11.66640625 10.39125 12.7234375 10.845 13.8125 11.3125 C18.51818234 13.48607708 21.87604008 15.21562296 25.0625 19.3125 C25.0625 19.9725 25.0625 20.6325 25.0625 21.3125 C13.85261052 22.22346167 3.89675947 19.12366026 -5.328125 12.77734375 C-6.9375 11.3125 -6.9375 11.3125 -7.9375 8.3125 C-7.2775 8.3125 -6.6175 8.3125 -5.9375 8.3125 C-5.97875 7.36375 -6.02 6.415 -6.0625 5.4375 C-5.86914291 0.60357282 -4.73838743 0.37606249 0 0 Z " fill="#EDAF42" transform="translate(65.9375,88.6875)"/>
<path d="M0 0 C0.78563324 0.00085602 1.57126648 0.00171204 2.38070679 0.00259399 C11.75383026 0.01359971 21.12691473 0.03304379 30.5 0.0625 C30.5 1.3825 30.5 2.7025 30.5 4.0625 C14.80646395 3.95397205 -0.88703407 3.84101605 -16.58050251 3.72316074 C-23.87160802 3.66850278 -31.16271827 3.61517208 -38.45385742 3.56518555 C-101.24916139 3.13330507 -101.24916139 3.13330507 -129.5 2.0625 C-129.5 1.7325 -129.5 1.4025 -129.5 1.0625 C-116.33343534 0.887501 -103.16676847 0.72143108 -90 0.5625 C-89.01643524 0.55062275 -88.03287048 0.5387455 -87.01950073 0.52650833 C-58.01243624 0.17866434 -29.00920861 -0.03184326 0 0 Z " fill="#D49435" transform="translate(172.5,359.9375)"/>
<path d="M0 0 C4.95 0 9.9 0 15 0 C12 2 12 2 9 3 C8.67 6.63 8.34 10.26 8 14 C8.66 14 9.32 14 10 14 C9.67 14.99 9.34 15.98 9 17 C8.85596652 18.33363703 8.75409577 19.67218046 8.68359375 21.01171875 C8.64169922 21.76904297 8.59980469 22.52636719 8.55664062 23.30664062 C8.51732422 24.09232422 8.47800781 24.87800781 8.4375 25.6875 C8.39431641 26.48478516 8.35113281 27.28207031 8.30664062 28.10351562 C8.20072632 30.06881447 8.09987449 32.03438496 8 34 C10.97 34 13.94 34 17 34 C16.34 34.99 15.68 35.98 15 37 C12.04935852 37.2208564 9.31631769 37.28060989 6.375 37.1875 C5.57320313 37.17396484 4.77140625 37.16042969 3.9453125 37.14648438 C1.96325622 37.11109051 -0.01845551 37.05728234 -2 37 C-1.34 36.34 -0.68 35.68 0 35 C0.17510386 32.34708243 0.23155483 29.80013826 0.1953125 27.1484375 C0.19106766 25.98738998 0.19106766 25.98738998 0.18673706 24.80288696 C0.17552754 22.32676843 0.15042203 19.8510095 0.125 17.375 C0.11497118 15.69792188 0.10584516 14.02083811 0.09765625 12.34375 C0.07558574 8.22902777 0.04105102 4.11457489 0 0 Z " fill="#E8AA40" transform="translate(252,233)"/>
<path d="M0 0 C3.65198995 1.40461152 6.66104197 3.38458393 8.4375 6.9375 C8.82819343 11.07885035 8.87132227 13.24936812 6.625 16.8125 C3.3216833 20.02143622 0.66085871 20.05728388 -3.75 20 C-5.338125 19.979375 -6.92625 19.95875 -8.5625 19.9375 C-8.5625 14.3275 -8.5625 8.7175 -8.5625 2.9375 C-2.5625 -0.0625 -2.5625 -0.0625 0 0 Z " fill="#985418" transform="translate(268.5625,247.0625)"/>
<path d="M0 0 C0.86882812 -0.00515625 1.73765625 -0.0103125 2.6328125 -0.015625 C4.875 0.25 4.875 0.25 6.875 2.25 C7.3125 5.0625 7.3125 5.0625 6.875 8.25 C4.5 11 4.5 11 1.875 13.25 C1.215 13.91 0.555 14.57 -0.125 15.25 C0.68904297 16.53583984 0.68904297 16.53583984 1.51953125 17.84765625 C2.2424461 19.00244232 2.96508773 20.15739946 3.6875 21.3125 C4.22213867 22.15458008 4.22213867 22.15458008 4.76757812 23.01367188 C6.6016583 25.95829601 8.1888688 28.84762317 9.51171875 32.05859375 C10.65119346 35.27451895 10.65119346 35.27451895 12.875 37.25 C8.915 37.25 4.955 37.25 0.875 37.25 C0.99875 36.321875 1.1225 35.39375 1.25 34.4375 C1.26149123 28.84127172 -1.70558373 23.53725077 -5.125 19.25 C-7.72889933 18.35534871 -7.72889933 18.35534871 -10.125 18.25 C-10.455 17.26 -10.785 16.27 -11.125 15.25 C-10.05958984 14.81300781 -10.05958984 14.81300781 -8.97265625 14.3671875 C-6.2111654 13.13555483 -3.65101784 11.9153644 -1.125 10.25 C0.17128737 7.09534204 0.17128737 7.09534204 -0.125 4.25 C-4.58 3.26 -4.58 3.26 -9.125 2.25 C-5.34803308 0.36151654 -4.00615229 -0.02391733 0 0 Z " fill="#EAAC40" transform="translate(105.125,232.75)"/>
<path d="M0 0 C4.29 0 8.58 0 13 0 C12.01 1.485 12.01 1.485 11 3 C10.82854185 5.61409145 10.76766568 8.11869674 10.8046875 10.73046875 C10.8075174 11.48088943 10.81034729 12.23131012 10.81326294 13.00447083 C10.82444938 15.39897675 10.84955072 17.79310731 10.875 20.1875 C10.88503181 21.81184355 10.89415731 23.43619297 10.90234375 25.06054688 C10.92438363 29.040509 10.9589026 33.02019088 11 37 C11.66 37.33 12.32 37.66 13 38 C8.71 38 4.42 38 0 38 C0.99 36.68 1.98 35.36 3 34 C3.46160588 30.77680849 3.46160588 30.77680849 3.3984375 27.1875 C3.40130768 26.53676514 3.40417786 25.88603027 3.40713501 25.21557617 C3.40917056 23.84390387 3.40367623 22.47220221 3.39111328 21.10058594 C3.37504985 19.00649835 3.39097657 16.91434039 3.41015625 14.8203125 C3.40817372 13.48437076 3.40432985 12.14843022 3.3984375 10.8125 C3.39505371 9.60207031 3.39166992 8.39164062 3.38818359 7.14453125 C3.21474241 3.59539811 3.21474241 3.59539811 0 0 Z " fill="#EBAD41" transform="translate(173,292)"/>
<path d="M0 0 C4.29 0 8.58 0 13 0 C12.01 1.485 12.01 1.485 11 3 C10.82854185 5.61409145 10.76766568 8.11869674 10.8046875 10.73046875 C10.8075174 11.48088943 10.81034729 12.23131012 10.81326294 13.00447083 C10.82444938 15.39897675 10.84955072 17.79310731 10.875 20.1875 C10.88503181 21.81184355 10.89415731 23.43619297 10.90234375 25.06054688 C10.92438363 29.040509 10.9589026 33.02019088 11 37 C11.66 37.33 12.32 37.66 13 38 C8.71 38 4.42 38 0 38 C0.99 36.68 1.98 35.36 3 34 C3.46160588 30.77680849 3.46160588 30.77680849 3.3984375 27.1875 C3.40130768 26.53676514 3.40417786 25.88603027 3.40713501 25.21557617 C3.40917056 23.84390387 3.40367623 22.47220221 3.39111328 21.10058594 C3.37504985 19.00649835 3.39097657 16.91434039 3.41015625 14.8203125 C3.40817372 13.48437076 3.40432985 12.14843022 3.3984375 10.8125 C3.39505371 9.60207031 3.39166992 8.39164063 3.38818359 7.14453125 C3.21474241 3.59539811 3.21474241 3.59539811 0 0 Z " fill="#EBAD41" transform="translate(290,232)"/>
<path d="M0 0 C4.29 0 8.58 0 13 0 C12.01 1.485 12.01 1.485 11 3 C10.82854185 5.61409145 10.76766568 8.11869674 10.8046875 10.73046875 C10.8075174 11.48088943 10.81034729 12.23131012 10.81326294 13.00447083 C10.82444938 15.39897675 10.84955072 17.79310731 10.875 20.1875 C10.88503181 21.81184355 10.89415731 23.43619297 10.90234375 25.06054688 C10.92438363 29.040509 10.9589026 33.02019088 11 37 C11.66 37.33 12.32 37.66 13 38 C8.71 38 4.42 38 0 38 C0.99 36.68 1.98 35.36 3 34 C3.46160588 30.77680849 3.46160588 30.77680849 3.3984375 27.1875 C3.40130768 26.53676514 3.40417786 25.88603027 3.40713501 25.21557617 C3.40917056 23.84390387 3.40367623 22.47220221 3.39111328 21.10058594 C3.37504985 19.00649835 3.39097657 16.91434039 3.41015625 14.8203125 C3.40817372 13.48437076 3.40432985 12.14843022 3.3984375 10.8125 C3.39505371 9.60207031 3.39166992 8.39164063 3.38818359 7.14453125 C3.21474241 3.59539811 3.21474241 3.59539811 0 0 Z " fill="#EBAD41" transform="translate(121,232)"/>
<path d="M0 0 C3.96 0.33 7.92 0.66 12 1 C10.90505906 6.3834596 9.59295495 11.66006915 8.0625 16.9375 C7.74410156 18.03964844 7.42570313 19.14179687 7.09765625 20.27734375 C6 23 6 23 3 25 C2.01 25 1.02 25 0 25 C0 16.75 0 8.5 0 0 Z " fill="#7E4928" transform="translate(235,575)"/>
<path d="M0 0 C3.3 0 6.6 0 10 0 C10.33 7.26 10.66 14.52 11 22 C6 20 6 20 4.70703125 17.96875 C2.55124622 12.01915986 1.07001351 6.2417455 0 0 Z " fill="#7C4829" transform="translate(319,585)"/>
<path d="M0 0 C5.94 0 11.88 0 18 0 C17 7 17 7 15.4375 8.9375 C11.91059124 10.47487049 8.78329491 10.69140297 5 10 C2.5625 8.375 2.5625 8.375 1 6 C0.67 4.02 0.34 2.04 0 0 Z " fill="#FEFAF4" transform="translate(120,166)"/>
<path d="M0 0 C24.75 0 49.5 0 75 0 C75 0.33 75 0.66 75 1 C74.44733963 1.02283554 73.89467926 1.04567108 73.32527161 1.06919861 C67.56616996 1.30793336 61.80731978 1.55216121 56.04858398 1.79956055 C53.90020597 1.89113607 51.75176803 1.98131723 49.60327148 2.07006836 C46.5126893 2.19797916 43.42235823 2.33092514 40.33203125 2.46484375 C39.37351761 2.50343002 38.41500397 2.5420163 37.42744446 2.58177185 C36.07661018 2.64172081 36.07661018 2.64172081 34.69848633 2.70288086 C33.91016922 2.73619003 33.12185211 2.76949921 32.30964661 2.80381775 C29.81759299 3.01549372 27.44838048 3.49854561 25 4 C23.01561604 4.07869838 21.02888652 4.10784044 19.04296875 4.09765625 C17.93115234 4.09443359 16.81933594 4.09121094 15.67382812 4.08789062 C14.52333984 4.07951172 13.37285156 4.07113281 12.1875 4.0625 C10.43276367 4.05573242 10.43276367 4.05573242 8.64257812 4.04882812 C5.76166642 4.0370693 2.88085956 4.02063426 0 4 C0 2.68 0 1.36 0 0 Z " fill="#CA8830" transform="translate(227,360)"/>
<path d="M0 0 C0.88429688 -0.01417969 1.76859375 -0.02835938 2.6796875 -0.04296875 C5.125 0.1875 5.125 0.1875 8.125 2.1875 C8.125 4.875 8.125 4.875 7.125 8.1875 C3.22899984 11.62835996 -0.77261155 13.35791586 -5.875 14.1875 C-5.90185938 12.04173363 -5.92133088 9.89587355 -5.9375 7.75 C-5.94910156 6.55503906 -5.96070312 5.36007813 -5.97265625 4.12890625 C-5.81522387 -0.612957 -4.29292653 0.03110816 0 0 Z " fill="#985418" transform="translate(97.875,234.8125)"/>
<path d="M0 0 C5.61 0 11.22 0 17 0 C16 6 16 6 13.8125 8.375 C10.43695612 10.32531424 8.83305454 10.71869773 5 10 C2.125 7.8125 2.125 7.8125 0 5 C0 3.35 0 1.7 0 0 Z " fill="#FEFDFA" transform="translate(58,121)"/>
<path d="M0 0 C0.79148437 -0.01417969 1.58296875 -0.02835938 2.3984375 -0.04296875 C4.625 0.1875 4.625 0.1875 7.625 2.1875 C7.30782813 5.14777076 6.64071727 6.17178273 4.5 8.3125 C1.16405198 10.48811827 -1.51976241 11.28038527 -5.375 12.1875 C-5.40187279 10.37507948 -5.42133715 8.56254767 -5.4375 6.75 C-5.44910156 5.74066406 -5.46070313 4.73132813 -5.47265625 3.69140625 C-5.30987667 -0.48226218 -3.74584243 0.03030617 0 0 Z " fill="#955217" transform="translate(265.375,234.8125)"/>
<path d="M0 0 C4.41889613 1.35021826 6.34345343 3.26115668 9 7 C8.34 8.32 7.68 9.64 7 11 C6.01 10.34 5.02 9.68 4 9 C1.65639085 9.25110098 -0.67968195 9.58565749 -3 10 C-3.99 10 -4.98 10 -6 10 C-6 6 -6 6 -3.5625 3.3125 C-2.716875 2.549375 -1.87125 1.78625 -1 1 C-0.67 0.67 -0.34 0.34 0 0 Z " fill="#AE6921" transform="translate(214,354)"/>
<path d="M0 0 C2.87310791 3.32588996 3.97084181 6.55462692 5.1875 10.75 C5.53167969 11.92046875 5.87585938 13.0909375 6.23046875 14.296875 C6.48441406 15.18890625 6.73835938 16.0809375 7 17 C6.24332031 16.69320313 5.48664063 16.38640625 4.70703125 16.0703125 C1.83615325 14.93521788 -1.06505701 13.95556283 -4 13 C-3.27991594 8.39146203 -1.68704061 4.32762591 0 0 Z " fill="#99571A" transform="translate(251,297)"/>
<path d="M0 0 C2.87310791 3.32588996 3.97084181 6.55462692 5.1875 10.75 C5.53167969 11.92046875 5.87585938 13.0909375 6.23046875 14.296875 C6.48441406 15.18890625 6.73835938 16.0809375 7 17 C6.24332031 16.69320313 5.48664063 16.38640625 4.70703125 16.0703125 C1.83615325 14.93521788 -1.06505701 13.95556283 -4 13 C-3.27991594 8.39146203 -1.68704061 4.32762591 0 0 Z " fill="#99571A" transform="translate(100,297)"/>
<path d="M0 0 C2.87310791 3.32588996 3.97084181 6.55462692 5.1875 10.75 C5.53167969 11.92046875 5.87585938 13.0909375 6.23046875 14.296875 C6.48441406 15.18890625 6.73835938 16.0809375 7 17 C6.24332031 16.69320312 5.48664063 16.38640625 4.70703125 16.0703125 C1.83615325 14.93521788 -1.06505701 13.95556283 -4 13 C-3.27991594 8.39146203 -1.68704061 4.32762591 0 0 Z " fill="#99571A" transform="translate(368,237)"/>
<path d="M0 0 C2.92300138 2.47783163 3.97340327 4.9851711 5.25 8.5625 C5.60578125 9.53316406 5.9615625 10.50382813 6.328125 11.50390625 C7 14 7 14 6 16 C1.05 14.02 1.05 14.02 -4 12 C-1.125 2.25 -1.125 2.25 0 0 Z " fill="#985619" transform="translate(177,238)"/>
<path d="M0 0 C2.27564709 0.18132646 4.51398288 0.51991937 6.7734375 0.84375 C9.17283708 1.15453371 9.17283708 1.15453371 12 0 C12.66 1.32 13.32 2.64 14 4 C13.01 4.66 12.02 5.32 11 6 C10.34 5.34 9.68 4.68 9 4 C6.6568787 4.25561323 4.32156597 4.59270772 2 5 C1.01 5 0.02 5 -1 5 C-1 1 -1 1 0 0 Z " fill="#E8A93F" transform="translate(209,359)"/>
<path d="M0 0 C1.32 0.66 2.64 1.32 4 2 C3.34 3.32 2.68 4.64 2 6 C0.68 5.34 -0.64 4.68 -2 4 C-1.34 2.68 -0.68 1.36 0 0 Z " fill="#E3A43D" transform="translate(214,364)"/>
<path d="M0 0 C0.66 0 1.32 0 2 0 C2 1.98 2 3.96 2 6 C0.35 5.67 -1.3 5.34 -3 5 C-1.125 1.125 -1.125 1.125 0 0 Z " fill="#7F4928" transform="translate(364,570)"/>
<path d="M0 0 C1.32 0.66 2.64 1.32 4 2 C3.34 3.32 2.68 4.64 2 6 C1.34 6 0.68 6 0 6 C-0.66 4.68 -1.32 3.36 -2 2 C-1.34 1.34 -0.68 0.68 0 0 Z " fill="#EBAC40" transform="translate(214,354)"/>
</svg>
