<?xml version="1.0" encoding="UTF-8"?>
<svg version="1.1" xmlns="http://www.w3.org/2000/svg" width="1920" height="640">
<path d="M0 0 C633.6 0 1267.2 0 1920 0 C1920 211.2 1920 422.4 1920 640 C1286.4 640 652.8 640 0 640 C0 428.8 0 217.6 0 0 Z " fill="#9B5418" transform="translate(0,0)"/>
<path d="M0 0 C20.87560828 -0.54324218 41.3940015 1.23430556 62.14782715 3.21600342 C67.32667394 3.70794578 72.50709932 4.1829017 77.68731308 4.66019058 C78.52933399 4.73778484 79.3713549 4.8153791 80.2388916 4.89532471 C81.07460442 4.97232857 81.91031723 5.04933243 82.77135468 5.12866974 C85.26091834 5.35900525 87.75022995 5.59191402 90.23950195 5.82537842 C100.81811396 6.81327788 111.39749783 7.70252249 122.00106812 8.38534546 C139.13972299 9.57440632 139.13972299 9.57440632 145.93182373 14.90014648 C146.85092529 15.61686523 147.77002686 16.33358398 148.71697998 17.07202148 C151.35436014 19.28484777 153.78362368 21.55730477 156.11932373 24.08764648 C156.89469482 24.78180664 156.89469482 24.78180664 157.68572998 25.48999023 C165.78035116 32.89647807 171.48869552 42.21679172 173.11932373 53.08764648 C173.44932373 53.41764648 173.77932373 53.74764648 174.11932373 54.08764648 C174.1134255 55.98392846 174.06424998 57.88014504 173.99432373 59.77514648 C173.94057607 64.83937039 174.64655684 67.63666608 177.11932373 72.08764648 C182.49038785 101.02628893 175.74793826 134.3952467 172.05682373 163.21264648 C171.92717224 164.2260611 171.79752075 165.23947571 171.66394043 166.28359985 C170.37769205 176.26546763 169.05050053 186.20659753 167.11932373 196.08764648 C166.8159612 197.96078973 166.52220156 199.83555342 166.24432373 201.71264648 C165.60155435 205.9760153 164.93683895 210.23439619 164.24432373 214.48999023 C162.37824709 225.96752495 160.5910193 237.45322199 158.93182373 248.96264648 C158.76505127 250.10805908 158.59827881 251.25347168 158.42645264 252.43359375 C157.68497209 257.63653153 157.05017162 262.7888293 156.69354248 268.03295898 C156.08680937 274.98574118 153.72460157 278.99678868 148.43182373 283.52514648 C147.53592529 284.30374023 146.64002686 285.08233398 145.71697998 285.88452148 C144.20493231 287.16691981 142.69224103 288.44856144 141.17791748 289.72827148 C135.93825 294.20971494 131.11883785 299.05318966 126.27508545 303.95336914 C122.53761228 307.71916416 118.70417537 311.27810656 114.65447998 314.70874023 C112.52366416 316.62267913 110.85334616 318.81547916 109.11932373 321.08764648 C107.46690807 322.76844333 105.79704454 324.43210777 104.11932373 326.08764648 C103.01695465 327.1837612 101.91509796 328.28039139 100.81365967 329.37744141 C100.21664246 329.97123093 99.61962524 330.56502045 99.0045166 331.17680359 C96.32775883 333.84017456 93.65365893 336.50620747 90.97967529 339.17236328 C89.56649485 340.58047563 88.152424 341.9876949 86.73748779 343.39404297 C84.69055249 345.42890126 82.64681769 347.46692605 80.60369873 349.50561523 C79.96833191 350.13582077 79.33296509 350.76602631 78.67834473 351.41532898 C78.09393616 351.99966202 77.50952759 352.58399506 76.90740967 353.18603516 C76.13394196 353.95617195 76.13394196 353.95617195 75.34484863 354.74186707 C74.00406705 356.09185734 74.00406705 356.09185734 73.11932373 358.08764648 C62.63576893 360.11672161 53.53042517 357.87452771 44.11932373 353.08764648 C44.11932373 350.44764648 44.11932373 347.80764648 44.11932373 345.08764648 C43.59467529 345.30420898 43.07002686 345.52077148 42.52947998 345.74389648 C26.43148687 351.52953128 6.78731868 347.36041527 -9.78551483 345.72500992 C-11.84063536 345.52293817 -13.8960351 345.32396499 -15.95153809 345.12582397 C-42.10040691 342.60072971 -68.1768128 339.56420863 -94.24259949 336.28933716 C-100.66837189 335.48239392 -107.09666338 334.70287184 -113.52844238 333.94534302 C-125.88315607 332.48794381 -138.1963587 330.82345906 -150.50567627 329.02514648 C-154.03934931 328.51217312 -157.57326999 328.00092174 -161.10723877 327.48999023 C-161.9466803 327.36823929 -162.78612183 327.24648834 -163.65100098 327.12104797 C-170.00408012 326.20328807 -176.36349296 325.34630879 -182.72979736 324.52563477 C-184.77732533 324.24101791 -186.82034509 323.92093354 -188.85577393 323.55981445 C-196.18023528 322.265176 -203.39797539 321.81375861 -210.81817627 321.52905273 C-211.88358643 321.48558716 -212.94899658 321.44212158 -214.04669189 321.39733887 C-216.65791819 321.29122121 -219.26922583 321.18807003 -221.88067627 321.08764648 C-222.1304422 320.10404396 -222.1304422 320.10404396 -222.38525391 319.10057068 C-224.13656628 312.20447075 -225.88913454 305.30869083 -227.64239502 298.41308594 C-228.2945 295.84808606 -228.94610167 293.28295986 -229.59747314 290.71777344 C-234.24154 272.40259957 -234.24154 272.40259957 -239.06182861 254.13330078 C-240.10212696 250.26397406 -241.10742876 246.3860252 -242.11114502 242.50708008 C-244.71687286 232.43867728 -247.40234876 222.39778124 -250.23321533 212.39038086 C-250.92428564 209.93254708 -251.60191676 207.47121159 -252.27911377 205.00952148 C-256.05187822 191.40890739 -260.49164284 178.1146523 -265.44708252 164.90014648 C-268.5126937 156.63964214 -271.03780021 148.30432493 -273.25567627 139.77514648 C-273.51872559 138.79707031 -273.7817749 137.81899414 -274.05279541 136.8112793 C-275.72423156 130.13901854 -277.29675945 122.91735968 -275.88067627 116.08764648 C-272.58355333 111.11796893 -269.21725536 108.82503662 -263.68536377 106.60717773 C-262.98894775 106.31253128 -262.29253174 106.01788483 -261.57501221 105.71430969 C-259.30828591 104.76006444 -257.03258236 103.82980821 -254.75567627 102.90014648 C-253.16936775 102.23915392 -251.58359771 101.57686764 -249.99835205 100.91333008 C-246.03361229 99.25854529 -242.06098902 97.62370526 -238.08575439 95.99432373 C-234.86589219 94.67039068 -231.65496792 93.32557136 -228.44317627 91.98217773 C-207.09091134 83.10263878 -185.59435592 74.9627909 -163.12530518 69.40625 C-156.00916563 67.64426287 -148.93744342 65.76128362 -141.88067627 63.77514648 C-140.81212402 63.47535889 -139.74357178 63.17557129 -138.64263916 62.86669922 C-128.68584361 60.05916814 -118.77540198 57.10581422 -108.88067627 54.08764648 C-108.69505127 52.85014648 -108.69505127 52.85014648 -108.50567627 51.58764648 C-106.6758576 41.34066194 -102.90572086 33.11891219 -97.88067627 24.08764648 C-97.0666333 22.60844727 -97.0666333 22.60844727 -96.23614502 21.09936523 C-92.68393851 14.92283729 -88.874569 9.08357497 -82.88067627 5.08764648 C-80.14492099 4.72924897 -77.48442573 4.47833977 -74.73614502 4.30639648 C-73.91142197 4.24797073 -73.08669891 4.18954498 -72.23698425 4.12934875 C-69.51459963 3.9393818 -66.79154129 3.76295708 -64.06817627 3.58764648 C-62.16760049 3.45996837 -60.26704732 3.33195323 -58.36651611 3.20361328 C-52.53891892 2.81494121 -46.71001888 2.44905393 -40.88067627 2.08764648 C-39.99821228 2.03223694 -39.11574829 1.97682739 -38.20654297 1.91973877 C-33.24451191 1.60881221 -28.28197914 1.31067972 -23.31808472 1.03100586 C-21.82477159 0.94649915 -20.33157486 0.85989766 -18.83853149 0.77075195 C-12.56139272 0.40092731 -6.28472732 0.19121699 0 0 Z " fill="#FCC654" transform="translate(1705.8806762695313,216.912353515625)"/>
<path d="M0 0 C20.87560828 -0.54324218 41.3940015 1.23430556 62.14782715 3.21600342 C67.32667394 3.70794578 72.50709932 4.1829017 77.68731308 4.66019058 C78.52933399 4.73778484 79.3713549 4.8153791 80.2388916 4.89532471 C81.49246082 5.0108305 81.49246082 5.0108305 82.77135468 5.12866974 C85.26091834 5.35900525 87.75022995 5.59191402 90.23950195 5.82537842 C100.81811396 6.81327788 111.39749783 7.70252249 122.00106812 8.38534546 C139.13972299 9.57440632 139.13972299 9.57440632 145.93182373 14.90014648 C146.85092529 15.61686523 147.77002686 16.33358398 148.71697998 17.07202148 C151.35436014 19.28484777 153.78362368 21.55730477 156.11932373 24.08764648 C156.89469482 24.78180664 156.89469482 24.78180664 157.68572998 25.48999023 C165.78035116 32.89647807 171.48869552 42.21679172 173.11932373 53.08764648 C173.44932373 53.41764648 173.77932373 53.74764648 174.11932373 54.08764648 C174.21756369 55.56413524 174.24905892 57.04540066 174.24432373 58.52514648 C174.24690186 59.32823242 174.24947998 60.13131836 174.25213623 60.95874023 C174.11932373 63.08764648 174.11932373 63.08764648 173.11932373 65.08764648 C171.18190033 65.1146803 169.24436894 65.13405773 167.30682373 65.15014648 C166.22787842 65.16174805 165.14893311 65.17334961 164.03729248 65.18530273 C161.11932373 65.08764648 161.11932373 65.08764648 158.11932373 64.08764648 C151.16054375 63.34622396 144.76139653 63.51470802 138.60369873 67.06420898 C125.22897557 77.95745835 116.60067067 97.53955376 108.72088623 112.48217773 C108.15933838 113.54315674 107.59779053 114.60413574 107.01922607 115.69726562 C105.95571468 117.72152532 104.90548525 119.75284654 103.87176514 121.79248047 C100.671235 127.91027544 97.00072234 132.72686661 92.26922607 137.74780273 C89.26526251 141.01716303 86.77466928 144.53116687 84.30682373 148.21264648 C83.85629639 148.86362305 83.40576904 149.51459961 82.94158936 150.18530273 C79.32573314 155.50119033 76.15832611 160.97063935 74.11932373 167.08764648 C70.07731696 166.77944908 66.03579148 166.46532732 61.99432373 166.15014648 C60.85221436 166.06313477 59.71010498 165.97612305 58.53338623 165.88647461 C56.87049561 165.75595703 56.87049561 165.75595703 55.17401123 165.62280273 C54.15806885 165.54425049 53.14212646 165.46569824 52.09539795 165.38476562 C50.11951934 165.18750194 48.1492181 164.92203843 46.1918335 164.58789062 C34.67472071 162.71275641 22.71967799 162.94838621 11.07559204 162.75689697 C-28.84681223 162.05552802 -68.92861638 160.3475535 -107.88067627 151.08764648 C-111.3741004 131.79833309 -110.01636198 110.82042691 -110.11184692 91.26254272 C-110.12423276 89.05077708 -110.14160967 86.83903278 -110.16439819 84.62734985 C-110.2698322 73.67997628 -110.15684969 62.91364203 -108.56427002 52.06420898 C-108.39154572 50.88257927 -108.39154572 50.88257927 -108.21533203 49.67707825 C-105.64055798 34.17858137 -96.6275336 18.33435764 -85.88067627 7.08764648 C-82.17667184 4.6183102 -79.04526491 4.57599202 -74.73614502 4.30639648 C-73.49906044 4.21875786 -73.49906044 4.21875786 -72.23698425 4.12934875 C-69.51459963 3.9393818 -66.79154129 3.76295708 -64.06817627 3.58764648 C-62.16760049 3.45996837 -60.26704732 3.33195323 -58.36651611 3.20361328 C-52.53891892 2.81494121 -46.71001888 2.44905393 -40.88067627 2.08764648 C-39.99821228 2.03223694 -39.11574829 1.97682739 -38.20654297 1.91973877 C-33.24451191 1.60881221 -28.28197914 1.31067972 -23.31808472 1.03100586 C-21.82477159 0.94649915 -20.33157486 0.85989766 -18.83853149 0.77075195 C-12.56139272 0.40092731 -6.28472732 0.19121699 0 0 Z " fill="#EEB042" transform="translate(1705.8806762695313,216.912353515625)"/>
<path d="M0 0 C0.95777344 -0.00773437 1.91554688 -0.01546875 2.90234375 -0.0234375 C9.71733909 -0.00566698 16.39888686 0.60851862 23.15768433 1.4105835 C29.58515927 2.16356613 36.0180522 2.7353937 42.46875 3.25 C44.01388779 3.37353851 44.01388779 3.37353851 45.59024048 3.49957275 C48.76833606 3.751765 51.9466244 4.00136313 55.125 4.25 C78.6628498 6.09131079 78.6628498 6.09131079 88.29296875 7.25 C102.61021815 8.94819819 117.04154911 9.59830403 131.42553711 10.5 C135.31136467 10.74512336 139.19669224 10.9972675 143.08203125 11.25 C144.24902054 11.32089844 145.41600983 11.39179688 146.61836243 11.46484375 C170.41529821 13.02303683 170.41529821 13.02303683 178.625 17.25 C179.285 18.24 179.945 19.23 180.625 20.25 C180.00753906 21.08660156 179.39007812 21.92320312 178.75390625 22.78515625 C163.61888704 43.49686876 155.65609773 61.39994494 152.8828125 87.0078125 C152.75600098 88.16587402 152.62918945 89.32393555 152.49853516 90.51708984 C152.25425662 92.79478762 152.02167098 95.07377763 151.80224609 97.35400391 C150.43545882 110.43954118 150.43545882 110.43954118 146.625 114.25 C143.46173755 114.50848403 140.27790285 114.43096693 137.10546875 114.42578125 C136.12192917 114.42435623 135.13838959 114.42293121 134.12504578 114.42146301 C122.68426148 114.33096966 111.3308536 113.41348944 99.9375 112.4375 C97.72195424 112.25443302 95.50637773 112.0717378 93.29077148 111.8894043 C80.85830416 110.85289304 68.45679309 109.67353795 56.0690918 108.1887207 C48.86584167 107.33626154 41.68842252 106.80608767 34.43969727 106.5402832 C31.65370716 106.43598107 28.97339062 106.32266308 26.23925781 105.75241089 C23.48428811 105.22295784 20.90508564 105.07211656 18.1015625 105.00048828 C17.01431885 104.97020538 15.9270752 104.93992249 14.80688477 104.90872192 C13.63311279 104.87954681 12.45934082 104.8503717 11.25 104.8203125 C8.70962452 104.74646775 6.16926029 104.67223512 3.62890625 104.59765625 C-0.33211706 104.48583951 -4.29308588 104.37709296 -8.25439453 104.27587891 C-76.39633096 102.50112386 -76.39633096 102.50112386 -90.375 91.25 C-94.59594423 85.84191521 -94.52464909 80.3515996 -94.5078125 73.71484375 C-94.50876923 72.8809462 -94.50972595 72.04704865 -94.51071167 71.18788147 C-94.51139162 69.42188441 -94.5095502 67.65588483 -94.50537109 65.88989258 C-94.50006749 63.22145775 -94.50529773 60.5531949 -94.51171875 57.88476562 C-94.51684845 50.82141197 -94.51441242 43.74505219 -94.1171875 36.69140625 C-94.07190918 35.88517822 -94.02663086 35.0789502 -93.97998047 34.24829102 C-93.14193805 31.48018077 -91.81735249 30.71645348 -89.375 29.25 C-86.69564922 28.24043247 -84.03322598 27.32001087 -81.3125 26.4375 C-71.24834066 23.04875474 -61.40930758 19.15311697 -51.5625 15.1875 C-50.82450165 14.89040131 -50.0865033 14.59330261 -49.32614136 14.28720093 C-47.14808554 13.40973495 -44.97046162 12.53120569 -42.79296875 11.65234375 C-42.08784653 11.36804001 -41.3827243 11.08373627 -40.65623474 10.79081726 C-37.18115936 9.38843117 -33.7098233 7.97790807 -30.24462891 6.55126953 C-19.80480537 2.27119774 -11.32991043 -0.08794238 0 0 Z " fill="#EFB143" transform="translate(1599.375,375.75)"/>
<path d="M0 0 C10.29215292 -0.26847222 20.42016284 0.57233952 30.66015625 1.4609375 C32.45833634 1.61347273 34.25654977 1.76561541 36.05479431 1.91738892 C39.81113269 2.23546281 43.56716895 2.5568281 47.32299805 2.88085938 C52.08016264 3.29122149 56.83781187 3.69557695 61.59568119 4.09767723 C65.3084272 4.41176295 69.02098651 4.72801064 72.73348808 5.04497147 C74.48450879 5.1944292 76.23556171 5.34351012 77.98665047 5.49216843 C86.97969686 6.25765167 95.95771089 7.0892661 104.92993164 8.07055664 C112.18904759 8.8571968 119.41006016 9.37549867 126.7109375 9.59765625 C128.36048935 9.65644203 128.36048935 9.65644203 130.04336548 9.71641541 C133.48706339 9.83798553 136.93097343 9.95067146 140.375 10.0625 C144.92455822 10.21778935 149.47400456 10.37624205 154.0234375 10.53515625 C155.67798195 10.59280151 155.67798195 10.59280151 157.36595154 10.65161133 C188.2246241 11.73995417 188.2246241 11.73995417 200.6875 13.375 C201.65365234 13.4884375 202.61980469 13.601875 203.61523438 13.71875 C211.04619875 14.6607738 218.67940624 15.78627083 225 20 C225.328125 22.9296875 225.328125 22.9296875 225.25 26.875 C225.23686768 27.60388428 225.22373535 28.33276855 225.21020508 29.08374023 C225.17534319 30.75864152 225.13214676 32.43338133 225.08251953 34.10791016 C224.99041246 37.33601775 224.93179478 40.56412341 224.87109375 43.79296875 C224.57755262 56.51078888 223.90183403 68.59922683 221 81 C206.25901957 81.49158805 191.75224727 80.08372302 177.09516144 78.63736343 C175.04004091 78.43529169 172.98464117 78.2363185 170.92913818 78.03817749 C144.78026936 75.51308322 118.70386347 72.47656214 92.63807678 69.20169067 C86.21230438 68.39474744 79.78401289 67.61522536 73.35223389 66.85769653 C60.9975202 65.40029733 48.68431757 63.73581257 36.375 61.9375 C32.84132698 61.42452664 29.30741542 60.91321199 25.7734375 60.40234375 C24.52080109 60.22087296 24.52080109 60.22087296 23.24285889 60.03573608 C15.835917 58.96673915 8.42092678 57.96699493 1 57 C1.33 56.34 1.66 55.68 2 55 C1.34 54.67 0.68 54.34 0 54 C-0.41064453 51.74121094 -0.41064453 51.74121094 -0.6328125 48.734375 C-0.71692383 47.62602295 -0.80103516 46.5176709 -0.88769531 45.37573242 C-0.96600586 44.17924072 -1.04431641 42.98274902 -1.125 41.75 C-1.2084668 40.53610596 -1.29193359 39.32221191 -1.37792969 38.0715332 C-1.86795019 30.44471407 -2.2043594 22.83022653 -2.25 15.1875 C-2.25918457 14.34219727 -2.26836914 13.49689453 -2.27783203 12.62597656 C-2.25438408 8.02454994 -1.75675668 4.32915039 0 0 Z " fill="#EEB042" transform="translate(1519,484)"/>
<path d="M0 0 C0.515625 0.495 1.03125 0.99 1.5625 1.5 C0.98460676 5.48842944 0.13028097 9.0849411 -1.26000977 12.86499023 C-1.82178673 14.40466713 -1.82178673 14.40466713 -2.39491272 15.97544861 C-2.80213058 17.07538651 -3.20934845 18.1753244 -3.62890625 19.30859375 C-4.26420509 21.04521019 -4.26420509 21.04521019 -4.91233826 22.81690979 C-6.26995776 26.5256044 -7.63459143 30.23166676 -9 33.9375 C-20.96322427 65.52545986 -20.96322427 65.52545986 -31 97.75 C-31.27972656 98.76827881 -31.55945312 99.78655762 -31.84765625 100.83569336 C-34.26542276 109.69791395 -36.53776768 118.59798852 -38.81713867 127.49658203 C-40.93662419 135.7164383 -43.25151269 143.86242153 -45.6652832 152 C-48.27017904 160.82259019 -50.71191272 169.68597385 -53.125 178.5625 C-53.31141052 179.24765686 -53.49782104 179.93281372 -53.68988037 180.63873291 C-54.76644158 184.59858724 -55.83788693 188.55979291 -56.90472412 192.52227783 C-57.26837358 193.87218429 -57.63270169 195.22190806 -57.99761963 196.57147217 C-58.54823443 198.60840693 -59.09665269 200.64592152 -59.64453125 202.68359375 C-59.96526611 203.8739624 -60.28600098 205.06433105 -60.61645508 206.29077148 C-61.45572549 209.40554999 -61.45572549 209.40554999 -61.92456055 212.23852539 C-62.4375 214.5 -62.4375 214.5 -64.4375 217.5 C-73.48381917 220.462421 -83.65501044 217.23975856 -91.85546875 213.3046875 C-92.37753906 213.03914062 -92.89960937 212.77359375 -93.4375 212.5 C-93.4375 209.86 -93.4375 207.22 -93.4375 204.5 C-94.0975 204.17 -94.7575 203.84 -95.4375 203.5 C-94.7775 203.17 -94.1175 202.84 -93.4375 202.5 C-92.98252868 200.357033 -92.98252868 200.357033 -92.83984375 197.7421875 C-92.7612915 196.73591309 -92.68273926 195.72963867 -92.60180664 194.69287109 C-92.48953735 193.0505249 -92.48953735 193.0505249 -92.375 191.375 C-92.29048584 190.24787598 -92.20597168 189.12075195 -92.11889648 187.95947266 C-91.65587795 181.53829031 -91.31749609 175.12301548 -91.09863281 168.68920898 C-90.93275518 163.95635872 -90.70106056 159.22834277 -90.4375 154.5 C-90.39141602 153.62327637 -90.34533203 152.74655273 -90.29785156 151.84326172 C-88.23831091 119.0429441 -73.25019537 87.25598981 -56.68896484 59.46044922 C-52.77120364 52.87754434 -49.15375303 46.2048806 -45.6875 39.375 C-38.38623614 25.12950555 -27.68221323 5.97104208 -12.5 -0.8125 C-7.93081778 -1.83823478 -4.1127308 -2.53091126 0 0 Z " fill="#EFB143" transform="translate(1843.4375,357.5)"/>
<path d="M0 0 C7.7201642 0.30527184 7.7201642 0.30527184 10.4375 3.125 C12.44856713 7.53387795 12.53830136 10.92948641 12.0625 15.6875 C13.42375 15.749375 13.42375 15.749375 14.8125 15.8125 C26.89756391 17.61915602 37.01637147 26.35649841 44.375 35.625 C52.4117303 47.0767715 54.4409898 56.89364933 54.0625 70.6875 C29.67753239 85.51778078 -12.49740571 82.67342044 -39.29296875 76.8046875 C-45.0211035 75.2969712 -49.6876457 73.99850328 -53.9375 69.6875 C-56.37281979 60.4332848 -52.37909078 49.99416253 -47.97851562 41.93017578 C-40.30135342 28.91190215 -28.18808021 19.19616132 -13.5234375 14.99609375 C-13.00007813 14.89425781 -12.47671875 14.79242188 -11.9375 14.6875 C-11.89882812 13.79998047 -11.89882812 13.79998047 -11.859375 12.89453125 C-11.77429688 11.70923828 -11.77429688 11.70923828 -11.6875 10.5 C-11.64109375 9.72269531 -11.5946875 8.94539062 -11.546875 8.14453125 C-9.91404418 1.56087365 -6.44975494 -0.02065023 0 0 Z " fill="#FCC654" transform="translate(206.9375,240.3125)"/>
<path d="M0 0 C1.00836914 -0.01063477 1.00836914 -0.01063477 2.03710938 -0.02148438 C4.91934424 0.01572422 6.94649679 0.09168049 9.33984375 1.77734375 C12.02773277 5.84265633 11.51407243 9.76658202 11.4375 14.4375 C13.29375 14.7159375 13.29375 14.7159375 15.1875 15 C26.69422986 17.55906768 37.17483375 25.61012256 43.95703125 35.1015625 C48.38478617 42.08783543 51.98842348 49.26997777 53.4375 57.4375 C53.60507813 58.27410156 53.77265625 59.11070312 53.9453125 59.97265625 C54.36307954 62.55141823 54.62591052 64.83115446 54.4375 67.4375 C48.76359721 75.2188524 39.3753931 76.20728035 30.42578125 77.609375 C19.91123265 78.92456804 9.33153145 78.82062186 -1.25 78.8125 C-2.76288605 78.8149472 -2.76288605 78.8149472 -4.30633545 78.81744385 C-14.88705766 78.81551137 -25.18577701 78.75023275 -35.5625 76.4375 C-36.81804688 76.20289063 -38.07359375 75.96828125 -39.3671875 75.7265625 C-51.51024961 73.10020047 -51.51024961 73.10020047 -54.5625 69.4375 C-56.8017279 58.07425392 -52.55962268 46.53208916 -46.3125 37.125 C-45.09411595 35.53772354 -43.84375048 33.97447868 -42.5625 32.4375 C-41.93988281 31.66792969 -41.31726562 30.89835937 -40.67578125 30.10546875 C-33.46542528 22.04360408 -22.42785334 15.65414921 -11.5625 14.4375 C-11.60890625 13.76203125 -11.6553125 13.0865625 -11.703125 12.390625 C-11.75726563 11.05257812 -11.75726563 11.05257812 -11.8125 9.6875 C-11.85890625 8.80578125 -11.9053125 7.9240625 -11.953125 7.015625 C-11.5625 4.4375 -11.5625 4.4375 -10.01953125 2.13671875 C-6.60163181 -0.22701139 -4.11996216 -0.06041 0 0 Z " fill="#FCC655" transform="translate(95.5625,159.5625)"/>
<path d="M0 0 C4.60054605 3.93593389 6.58864853 7.83757676 8.79296875 13.3125 C9.30836967 14.55006042 9.30836967 14.55006042 9.83418274 15.81262207 C10.96453009 18.53674353 12.07633244 21.26800493 13.1875 24 C13.97839062 25.92024169 14.7700711 27.84015823 15.5625 29.75976562 C18.06230755 35.83150577 20.53307898 41.91483938 23 48 C23.4039801 48.99435059 23.80796021 49.98870117 24.22418213 51.01318359 C33.15368931 72.99267867 42.0820898 94.98355442 50.04199219 117.33691406 C50.93031459 119.80628735 51.85420242 122.2588971 52.7890625 124.7109375 C56.18613752 133.85948592 57.97340356 142.87586672 59.31298828 152.53222656 C61.08110838 165.19377995 63.45666997 177.73836541 65.80999756 190.30218506 C66.34026601 193.13443063 66.86557068 195.9675653 67.390625 198.80078125 C67.55291595 199.65494125 67.71520691 200.50910126 67.88241577 201.3891449 C68.02982208 202.18667679 68.17722839 202.98420868 68.32910156 203.8059082 C68.45915588 204.49803909 68.58921021 205.19016998 68.72320557 205.90327454 C69 208 69 208 69 213 C60.09 212.67 51.18 212.34 42 212 C41.03578125 208.20371094 40.0715625 204.40742187 39.078125 200.49609375 C38.1317209 196.77248877 37.18501509 193.04896061 36.23828125 189.32543945 C35.58617627 186.76043958 34.9345746 184.19531337 34.28320312 181.63012695 C29.63913627 163.31495308 29.63913627 163.31495308 24.81884766 145.0456543 C23.77854931 141.17632758 22.77324751 137.29837872 21.76953125 133.41943359 C19.16380341 123.35103079 16.47832751 113.31013476 13.64746094 103.30273438 C12.95639063 100.8449006 12.27875951 98.3835651 11.6015625 95.921875 C7.82879805 82.32126091 3.38903343 69.02700582 -1.56640625 55.8125 C-4.63201743 47.55199566 -7.15712394 39.21667845 -9.375 30.6875 C-9.63804932 29.70942383 -9.90109863 28.73134766 -10.17211914 27.72363281 C-14.18856173 11.69026403 -14.18856173 11.69026403 -11.06323242 4.99243164 C-8.40249171 1.55159478 -4.35956592 -2.17978296 0 0 Z " fill="#EEB042" transform="translate(1442,326)"/>
<path d="M0 0 C7.25899226 -0.10174864 14.51779934 -0.17161187 21.77734375 -0.21972656 C24.24486158 -0.23979295 26.71233215 -0.26705244 29.1796875 -0.30175781 C32.73449393 -0.35049306 36.28866944 -0.37301939 39.84375 -0.390625 C41.48796936 -0.42159271 41.48796936 -0.42159271 43.16540527 -0.45318604 C49.52262545 -0.45503199 54.80446157 0.0493435 60 4 C62.35620437 7.53430656 62.48991613 8.83571287 62 13 C58.88691418 19.65068334 52.45190451 23.77404775 46 27 C46.85722656 27.42410156 47.71445312 27.84820312 48.59765625 28.28515625 C57.95921203 33.08730719 65.36511598 37.57698504 69.33984375 47.74609375 C71.1970521 54.0869767 70.16166318 59.08944474 67.24609375 64.9609375 C63.13692391 71.6850336 56.31819193 74.04079901 49 76 C43.04070796 76.90589375 37.27107713 77.13398032 31.25 77.09765625 C30.35128174 77.0962413 29.45256348 77.09482635 28.52661133 77.09336853 C25.68437225 77.08781583 22.84221487 77.07527237 20 77.0625 C18.06119906 77.05747888 16.12239688 77.05291705 14.18359375 77.04882812 C9.45569817 77.03786194 4.72786289 77.02063044 0 77 C1 75 1 75 2.9375 74.1875 C5.76575057 72.55911331 6.02094699 71.07937592 7 68 C7.30627101 65.1556407 7.30627101 65.1556407 7.2746582 62.11157227 C7.28419022 60.95009171 7.29372223 59.78861115 7.30354309 58.5919342 C7.30263168 57.34600998 7.30172028 56.10008575 7.30078125 54.81640625 C7.30506638 53.52814438 7.3093515 52.23988251 7.31376648 50.9125824 C7.32121206 48.18997066 7.32094952 45.46748864 7.31567383 42.74487305 C7.30988064 39.26692899 7.32681387 35.78951774 7.3500185 32.31166172 C7.36834765 28.97988809 7.36456957 25.64822996 7.36328125 22.31640625 C7.372491 21.07250626 7.38170074 19.82860626 7.39118958 18.54701233 C7.45120733 10.26678769 7.45120733 10.26678769 4 3 C1.92309422 2.03955898 1.92309422 2.03955898 0 2 C0 1.34 0 0.68 0 0 Z " fill="#EBAD41" transform="translate(957,58)"/>
<path d="M0 0 C7.13493991 -0.07624757 14.26977418 -0.12868289 21.4050293 -0.16479492 C23.83085049 -0.17985409 26.25664458 -0.20030562 28.68237305 -0.22631836 C32.17503562 -0.26282703 35.66733725 -0.27975553 39.16015625 -0.29296875 C40.23959 -0.30845261 41.31902374 -0.32393646 42.4311676 -0.33988953 C49.29709536 -0.341414 54.19689545 0.30127346 59.91015625 4.35546875 C62.33646551 8.01667376 61.52813952 12.82289651 61 17 C57.88572405 23.60226502 51.73868164 27.73374325 46 32 C46.6290625 32.825 47.258125 33.65 47.90625 34.5 C54.41951207 43.22101744 59.37093522 52.17365463 64 62 C65.09630217 64.27464055 66.19969887 66.54588541 67.3125 68.8125 C67.76238281 69.74707031 68.21226562 70.68164062 68.67578125 71.64453125 C70.02806622 74.29792363 70.02806622 74.29792363 73 77 C64.75 77 56.5 77 48 77 C48.99 76.01 49.98 75.02 51 74 C52.81491835 64.26543792 47.06037227 55.15868545 41.8359375 47.234375 C40.11672149 44.77835213 38.32049266 42.39647335 36.46875 40.0390625 C35 38 35 38 35 36 C28.07 38.475 28.07 38.475 21 41 C20.97700778 45.05684889 20.95710515 49.1135311 20.94506836 53.17041016 C20.94004882 54.54964973 20.93323181 55.92888402 20.92456055 57.30810547 C20.9123908 59.29392183 20.90728367 61.27977749 20.90234375 63.265625 C20.89710693 64.45961914 20.89187012 65.65361328 20.88647461 66.88378906 C20.99320473 70.54328401 20.99320473 70.54328401 22 74 C24.99615946 75.3045656 24.99615946 75.3045656 28 76 C28 76.33 28 76.66 28 77 C18.76 77 9.52 77 0 77 C0.99 76.01 1.98 75.02 3 74 C3.66 74 4.32 74 5 74 C6.08678326 70.73965021 6.15329143 68.2959801 6.19287109 64.86376953 C6.20893402 63.59880646 6.22499695 62.33384338 6.24154663 61.0305481 C6.25303271 59.64797641 6.26364148 58.26539719 6.2734375 56.8828125 C6.27876118 56.18572048 6.28408485 55.48862846 6.28956985 54.77041245 C6.31626756 51.08181611 6.33565461 47.39325325 6.35009766 43.70458984 C6.36344534 40.65480613 6.39131603 37.6056902 6.43212891 34.55615234 C6.48146039 30.8697445 6.50621847 27.18394292 6.51332474 23.49721909 C6.52003328 22.09457654 6.53524545 20.69194732 6.55921555 19.28949356 C6.59088235 17.32490741 6.58790103 15.35985594 6.58349609 13.39501953 C6.59158295 12.27821808 6.5996698 11.16141663 6.60800171 10.01077271 C5.81055718 6.06189527 3.97120414 4.61748679 1 2 C0.67 1.34 0.34 0.68 0 0 Z " fill="#EDAE42" transform="translate(616,58)"/>
<path d="M0 0 C9.57 0 19.14 0 29 0 C29 2.31 29 4.62 29 7 C30.13743634 10.05054349 30.13743634 10.05054349 31.84375 12.93359375 C32.43027344 13.99384766 33.01679687 15.05410156 33.62109375 16.14648438 C34.55115234 17.77553711 34.55115234 17.77553711 35.5 19.4375 C36.43005859 21.1071582 36.43005859 21.1071582 37.37890625 22.81054688 C38.90625519 25.54802613 40.44679916 28.27713216 42 31 C45.99914471 25.37365137 49.92732033 19.75859383 53.4375 13.8125 C54.11683594 12.68457031 54.79617188 11.55664062 55.49609375 10.39453125 C57.47257511 6.55212357 57.47257511 6.55212357 57 0 C65.91 0 74.82 0 84 0 C82.02 2.31 80.04 4.62 78 7 C77.12570969 10.18748694 77.12570969 10.18748694 77.25537109 13.49853516 C77.24291351 14.74317535 77.23045593 15.98781555 77.21762085 17.27017212 C77.23499565 18.60981877 77.25363148 19.94944958 77.2734375 21.2890625 C77.27447638 22.67955523 77.2734345 24.07005093 77.27041626 25.46054077 C77.27059499 28.36411825 77.29130594 31.26657678 77.32763672 34.16992188 C77.37309808 37.88358528 77.37407799 41.59562289 77.36060143 45.3094883 C77.353907 48.17671053 77.36720763 51.0435647 77.38685989 53.91071701 C77.39453252 55.27977954 77.39687335 56.64888309 77.3936882 58.01796341 C77.39294323 59.93215438 77.42121835 61.84628958 77.45068359 63.76025391 C77.45989838 64.84722565 77.46911316 65.93419739 77.47860718 67.05410767 C78.12529946 70.70794744 79.44765983 72.35063798 82 75 C83.485 75.99 83.485 75.99 85 77 C75.76 77 66.52 77 57 77 C58.26422764 74.47154472 59.52845528 74.23577236 62 73 C63.34049527 70.31900947 63.1198052 68.26688794 63.11352539 65.26513672 C63.11344986 64.06404266 63.11337433 62.86294861 63.11329651 61.62545776 C63.10813522 60.32335358 63.10297394 59.02124939 63.09765625 57.6796875 C63.09579138 56.33733167 63.0943678 54.99497516 63.09336853 53.65261841 C63.08954878 50.11804325 63.07972312 46.58350913 63.06866455 43.0489502 C63.05843878 39.44279536 63.05386841 35.8366339 63.04882812 32.23046875 C63.03810038 25.15362904 63.02103045 18.0768172 63 11 C60.94964759 14.30544873 58.90050738 17.61164738 56.8515625 20.91796875 C55.99220093 22.30332825 55.99220093 22.30332825 55.11547852 23.7166748 C51.0783374 30.23303831 47.05348748 36.75782573 43.16748047 43.36584473 C42.0234375 45.23828125 42.0234375 45.23828125 40 48 C39.01 48 38.02 48 37 48 C36.36553955 46.85168701 36.36553955 46.85168701 35.71826172 45.68017578 C34.12056921 42.79054629 32.52125462 39.90182642 30.92089844 37.01367188 C30.23374154 35.77281152 29.547199 34.53161071 28.86132812 33.29003906 C27.8649703 31.48668967 26.86627292 29.6846519 25.8671875 27.8828125 C25.27019043 26.80402832 24.67319336 25.72524414 24.05810547 24.61376953 C21.47420036 20.01585198 18.72902768 15.51270313 16 11 C15.97681836 18.623554 15.9590552 26.24710434 15.94818783 33.87068558 C15.94297175 37.41071061 15.93589724 40.95071151 15.92456055 44.49072266 C15.91160577 48.56152578 15.90676124 52.63230359 15.90234375 56.703125 C15.89718246 57.97303284 15.89202118 59.24294067 15.88670349 60.55133057 C15.88662796 61.73225281 15.88655243 62.91317505 15.88647461 64.12988281 C15.88314369 65.68875214 15.88314369 65.68875214 15.87974548 67.27911377 C15.98827741 69.73476401 16.0877702 71.71880509 17 74 C19.99615946 75.3045656 19.99615946 75.3045656 23 76 C23 76.33 23 76.66 23 77 C15.41 77 7.82 77 0 77 C1.26422764 74.47154472 2.52845528 74.23577236 5 73 C6.37350391 70.25299218 6.14239596 68.03606516 6.16113281 64.96142578 C6.17074036 63.69315948 6.1803479 62.42489319 6.19024658 61.11819458 C6.19509434 59.72723571 6.19937322 58.33627476 6.203125 56.9453125 C6.20887656 55.52285764 6.21463429 54.10040281 6.22039795 52.677948 C6.23090812 49.69366087 6.23675063 46.70940069 6.24023438 43.72509766 C6.24571834 39.90277327 6.26974378 36.08080524 6.29820633 32.25859261 C6.31683896 29.31947798 6.32203863 26.38044907 6.32357025 23.44128036 C6.32659607 22.03227668 6.33462228 20.62327449 6.34775543 19.21432877 C6.3648265 17.24207869 6.36108933 15.26968177 6.35644531 13.29736328 C6.36009094 12.17532501 6.36373657 11.05328674 6.36749268 9.89724731 C5.95589672 6.65229754 5.29344316 5.29852886 3 3 C2.01 2.67 1.02 2.34 0 2 C0 1.34 0 0.68 0 0 Z " fill="#ECAE41" transform="translate(703,181)"/>
<path d="M0 0 C9.57 0 19.14 0 29 0 C29 0.66 29 1.32 29 2 C28.34 2 27.68 2 27 2 C29.90509292 9.16853988 33.58474867 15.89072292 37.23632812 22.70117188 C37.71908203 23.61060547 38.20183594 24.52003906 38.69921875 25.45703125 C39.14096436 26.28178955 39.58270996 27.10654785 40.0378418 27.95629883 C41 30 41 30 41 32 C41.66 32 42.32 32 43 32 C43.27255615 31.27167969 43.5451123 30.54335937 43.82592773 29.79296875 C44.95501486 27.10701393 46.24648477 24.78213023 47.78515625 22.3125 C48.31560547 21.44882813 48.84605469 20.58515625 49.39257812 19.6953125 C50.50694428 17.89668643 51.62414002 16.09981042 52.74414062 14.3046875 C53.53788086 13.00917969 53.53788086 13.00917969 54.34765625 11.6875 C54.83242432 10.90761719 55.31719238 10.12773438 55.81665039 9.32421875 C57.06594236 6.87048251 57.58937354 4.71151438 58 2 C57.34 2 56.68 2 56 2 C56 1.34 56 0.68 56 0 C65.24 0 74.48 0 84 0 C84 0.66 84 1.32 84 2 C82.35 2.33 80.7 2.66 79 3 C77.90736216 6.27791352 77.86649945 8.70127944 77.85473633 12.15209961 C77.84835648 13.42029037 77.84197662 14.68848114 77.83540344 15.99510193 C77.83387479 17.38084882 77.83276081 18.76659621 77.83203125 20.15234375 C77.82881774 21.57336969 77.8254536 22.99439529 77.82194519 24.41542053 C77.8159581 27.39373542 77.81410488 30.37202131 77.81469727 33.3503418 C77.81479891 37.16471111 77.80114269 40.97889436 77.78392506 44.79321957 C77.77280146 47.7280411 77.77077816 50.6628177 77.77130699 53.59765816 C77.77012757 55.00385746 77.76570791 56.41005796 77.75797462 57.8162365 C77.7481673 59.7836352 77.75231896 61.75108848 77.75708008 63.71850586 C77.75565506 64.83752792 77.75423004 65.95654999 77.75276184 67.10948181 C78.00347594 70.04063806 78.34480688 71.5940436 80 74 C81.32 74.99 82.64 75.98 84 77 C74.76 77 65.52 77 56 77 C60 74 60 74 62 74 C62.86387807 70.27387562 63.12170823 66.83774336 63.11352539 63.01635742 C63.11344986 61.83551071 63.11337433 60.654664 63.11329651 59.43803406 C63.10813522 58.17328751 63.10297394 56.90854095 63.09765625 55.60546875 C63.0962413 54.30297684 63.09482635 53.00048492 63.09336853 51.65852356 C63.08956355 48.20783546 63.07975064 44.75718992 63.06866455 41.30651855 C63.05840689 37.78052343 63.0538616 34.25452139 63.04882812 30.72851562 C63.03812644 23.81899301 63.02107443 16.90949855 63 10 C62.63924881 10.61473175 62.27849762 11.2294635 61.90681458 11.86282349 C60.23800416 14.70397068 58.56628337 17.54339531 56.89453125 20.3828125 C56.32738403 21.34936768 55.76023682 22.31592285 55.17590332 23.31176758 C50.03195685 32.04055615 44.59072909 40.5522851 39 49 C35.6737276 45.96810818 33.62127427 42.89044778 31.46875 38.94921875 C30.99205872 38.08367119 30.99205872 38.08367119 30.5057373 37.20063782 C29.49732666 35.36639978 28.49845253 33.52717415 27.5 31.6875 C26.83007337 30.46383866 26.15950593 29.24052792 25.48828125 28.01757812 C24.24396047 25.7504518 23.00417415 23.48108898 21.76757812 21.2097168 C19.88128394 17.7844254 17.94797701 14.39051706 16 11 C15.95363686 18.62353043 15.91811057 26.24704622 15.89637566 33.87068558 C15.88594339 37.41074864 15.87179446 40.95071516 15.84912109 44.49072266 C15.82321149 48.56153281 15.81352262 52.63224172 15.8046875 56.703125 C15.79436493 57.97303284 15.78404236 59.24294067 15.77340698 60.55133057 C15.77318039 62.32271393 15.77318039 62.32271393 15.77294922 64.12988281 C15.768508 65.16912903 15.76406677 66.20837524 15.75949097 67.27911377 C16.01082889 70.12250757 16.40510221 71.65036641 18 74 C19.32 74.99 20.64 75.98 22 77 C14.74 77 7.48 77 0 77 C1 75 1 75 4 74 C6.33975452 70.49036823 6.26675082 69.01922768 6.30639648 64.86376953 C6.32238388 63.59880646 6.33837128 62.33384338 6.35484314 61.0305481 C6.36121987 59.64797366 6.3666126 58.26539438 6.37109375 56.8828125 C6.3800615 55.46418157 6.38918337 54.0455516 6.39845276 52.62692261 C6.41494153 49.65278832 6.42264258 46.67876658 6.42553711 43.70458984 C6.43091982 39.89890988 6.46859348 36.09429196 6.51428127 32.28891182 C6.54406836 29.35830858 6.551261 26.42796054 6.55226326 23.49721909 C6.55646269 22.09459445 6.5688862 20.69196885 6.58978081 19.28949356 C6.61671984 17.32485097 6.60875866 15.35982435 6.59936523 13.39501953 C6.60443588 12.27821808 6.60950653 11.16141663 6.61473083 10.01077271 C5.80923473 6.06568723 3.96952366 4.61703393 1 2 C0.67 1.34 0.34 0.68 0 0 Z " fill="#ECAE41" transform="translate(860,58)"/>
<path d="M0 0 C8.58 0 17.16 0 26 0 C26 0.66 26 1.32 26 2 C25.34 2.33 24.68 2.66 24 3 C24.56609061 9.30695813 26.05562794 14.80598865 28.1328125 20.7734375 C28.44773651 21.69605377 28.76266052 22.61867004 29.08712769 23.56924438 C29.75428498 25.5186142 30.42518528 27.46670656 31.09960938 29.41357422 C32.10899901 32.32878763 33.10630004 35.24790626 34.1015625 38.16796875 C37.19678334 47.2087313 40.3728929 56.22147964 43.7421875 65.1640625 C44.1470488 66.27072769 44.1470488 66.27072769 44.56008911 67.39974976 C46.23334503 71.75193678 47.56061961 73.56061961 51 77 C42.09 77 33.18 77 24 77 C25.65 75.35 27.3 73.7 29 72 C30.28137229 67.56692941 29.30518386 63.04392238 27.5 58.875 C23.21506247 51.32749601 16.11812074 46.64403605 8 44 C4.68537102 43.18872717 1.36980089 42.53466569 -2 42 C-2.17015625 42.59425781 -2.3403125 43.18851563 -2.515625 43.80078125 C-3.8807108 48.46966512 -5.37713631 52.98375464 -7.1875 57.5 C-9.00560957 62.46809011 -10.49962312 67.77460516 -9 73 C-7.35 74.32 -5.7 75.64 -4 77 C-11.92 77 -19.84 77 -28 77 C-27 75 -27 75 -25.11108398 74.18017578 C-16.64306224 69.4462314 -12.64894889 49.8425933 -9.4375 41.125 C-8.78509965 39.37087255 -8.13210795 37.61696492 -7.47851562 35.86328125 C-5.92191309 31.68003773 -4.3795823 27.49174875 -2.84490967 23.30041504 C-2.04384332 21.11937113 -1.23394023 18.94179827 -0.42236328 16.76464844 C0.04043583 15.50730743 0.50286521 14.24983024 0.96484375 12.9921875 C1.36179443 11.92081543 1.75874512 10.84944336 2.16772461 9.74560547 C3.19339652 6.8401643 3.19339652 6.8401643 3 3 C2.01 2.01 1.02 1.02 0 0 Z " fill="#ECAE41" transform="translate(951,181)"/>
<path d="M0 0 C8.58 0 17.16 0 26 0 C26 0.66 26 1.32 26 2 C25.34 2.33 24.68 2.66 24 3 C24.56609061 9.30695813 26.05562794 14.80598865 28.1328125 20.7734375 C28.44773651 21.69605377 28.76266052 22.61867004 29.08712769 23.56924438 C29.75428498 25.5186142 30.42518528 27.46670656 31.09960938 29.41357422 C32.10899901 32.32878763 33.10630004 35.24790626 34.1015625 38.16796875 C37.19678334 47.2087313 40.3728929 56.22147964 43.7421875 65.1640625 C44.1470488 66.27072769 44.1470488 66.27072769 44.56008911 67.39974976 C46.23334503 71.75193678 47.56061961 73.56061961 51 77 C42.09 77 33.18 77 24 77 C25.65 75.35 27.3 73.7 29 72 C30.28137229 67.56692941 29.30518386 63.04392238 27.5 58.875 C23.21506247 51.32749601 16.11812074 46.64403605 8 44 C4.68537102 43.18872717 1.36980089 42.53466569 -2 42 C-2.17015625 42.59425781 -2.3403125 43.18851563 -2.515625 43.80078125 C-3.8807108 48.46966512 -5.37713631 52.98375464 -7.1875 57.5 C-9.00560957 62.46809011 -10.49962312 67.77460516 -9 73 C-7.35 74.32 -5.7 75.64 -4 77 C-11.92 77 -19.84 77 -28 77 C-27 75 -27 75 -25.11108398 74.18017578 C-16.64306224 69.4462314 -12.64894889 49.8425933 -9.4375 41.125 C-8.78509965 39.37087255 -8.13210795 37.61696492 -7.47851562 35.86328125 C-5.92191309 31.68003773 -4.3795823 27.49174875 -2.84490967 23.30041504 C-2.04384332 21.11937113 -1.23394023 18.94179827 -0.42236328 16.76464844 C0.04043583 15.50730743 0.50286521 14.24983024 0.96484375 12.9921875 C1.36179443 11.92081543 1.75874512 10.84944336 2.16772461 9.74560547 C3.19339652 6.8401643 3.19339652 6.8401643 3 3 C2.01 2.01 1.02 1.02 0 0 Z " fill="#ECAE41" transform="translate(1189,58)"/>
<path d="M0 0 C8.58 0 17.16 0 26 0 C26 0.66 26 1.32 26 2 C25.34 2.33 24.68 2.66 24 3 C24.56609061 9.30695813 26.05562794 14.80598865 28.1328125 20.7734375 C28.44773651 21.69605377 28.76266052 22.61867004 29.08712769 23.56924438 C29.75428498 25.5186142 30.42518528 27.46670656 31.09960938 29.41357422 C32.10899901 32.32878763 33.10630004 35.24790626 34.1015625 38.16796875 C37.19678334 47.2087313 40.3728929 56.22147964 43.7421875 65.1640625 C44.1470488 66.27072769 44.1470488 66.27072769 44.56008911 67.39974976 C46.23334503 71.75193678 47.56061961 73.56061961 51 77 C42.09 77 33.18 77 24 77 C25.65 75.35 27.3 73.7 29 72 C30.28137229 67.56692941 29.30518386 63.04392238 27.5 58.875 C23.21506247 51.32749601 16.11812074 46.64403605 8 44 C4.68537102 43.18872717 1.36980089 42.53466569 -2 42 C-2.17015625 42.59425781 -2.3403125 43.18851563 -2.515625 43.80078125 C-3.8807108 48.46966512 -5.37713631 52.98375464 -7.1875 57.5 C-9.00560957 62.46809011 -10.49962312 67.77460516 -9 73 C-7.35 74.32 -5.7 75.64 -4 77 C-11.92 77 -19.84 77 -28 77 C-27 75 -27 75 -25.11108398 74.18017578 C-16.64306224 69.4462314 -12.64894889 49.8425933 -9.4375 41.125 C-8.78509965 39.37087255 -8.13210795 37.61696492 -7.47851562 35.86328125 C-5.92191309 31.68003773 -4.3795823 27.49174875 -2.84490967 23.30041504 C-2.04384332 21.11937113 -1.23394023 18.94179827 -0.42236328 16.76464844 C0.04043583 15.50730743 0.50286521 14.24983024 0.96484375 12.9921875 C1.36179443 11.92081543 1.75874512 10.84944336 2.16772461 9.74560547 C3.19339652 6.8401643 3.19339652 6.8401643 3 3 C2.01 2.01 1.02 1.02 0 0 Z " fill="#ECAE41" transform="translate(801,58)"/>
<path d="M0 0 C8.25 0 16.5 0 25 0 C25 0.66 25 1.32 25 2 C24.34 2.33 23.68 2.66 23 3 C23.55765205 9.77427316 25.37496364 15.65443946 27.640625 22.04296875 C28.00468445 23.08842361 28.3687439 24.13387848 28.74383545 25.21101379 C29.90515135 28.53915291 31.07763947 31.86323769 32.25 35.1875 C33.02281834 37.40145444 33.79496014 39.61564516 34.56640625 41.83007812 C36.37601993 47.01270498 38.20614425 52.18760526 40.05493164 57.35638428 C40.64128216 58.99656768 41.22496756 60.63770964 41.80444336 62.28033447 C42.4569269 64.12465017 43.12600291 65.96307458 43.796875 67.80078125 C44.13557617 68.73704346 44.47427734 69.67330566 44.82324219 70.63793945 C46.1094115 73.53287977 46.1094115 73.53287977 50 77 C41.42 77 32.84 77 24 77 C25.32 75.35 26.64 73.7 28 72 C29.42565392 66.49179168 28.22502376 61.66713999 25.5625 56.75 C20.39365892 49.02100525 12.875847 45.15855444 4 43 C1.65959646 42.56036619 -0.62912166 42.2522211 -3 42 C-3.10183594 42.82886719 -3.20367188 43.65773437 -3.30859375 44.51171875 C-4.10672462 48.53844679 -5.5149804 52.02857369 -7.0625 55.8125 C-9.36576748 61.73848109 -11.17747582 66.5774046 -10 73 C-8.35 74.32 -6.7 75.64 -5 77 C-12.92 77 -20.84 77 -29 77 C-28 75 -28 75 -25.6875 73.875 C-19.68633186 69.6881385 -17.51793721 60.4327297 -15.03125 53.76171875 C-14.66906372 52.80030472 -14.30687744 51.83889069 -13.93371582 50.8483429 C-12.78510279 47.79622956 -11.64252973 44.74189502 -10.5 41.6875 C-9.73345525 39.64894473 -8.96653146 37.61053196 -8.19921875 35.57226562 C-5.58267977 28.61839089 -5.58267977 28.61839089 -2.98999023 21.65560913 C-2.2937909 19.78808231 -1.58369309 17.92570683 -0.86352539 16.06729126 C-0.49670654 15.10382782 -0.1298877 14.14036438 0.24804688 13.14770508 C0.75120422 11.8472802 0.75120422 11.8472802 1.26452637 10.52058411 C2.03290579 7.88722668 2.1371129 5.727641 2 3 C1.34 2.67 0.68 2.34 0 2 C0 1.34 0 0.68 0 0 Z " fill="#ECAE41" transform="translate(645,181)"/>
<path d="M0 0 C0.86738365 3.43430411 1.71660951 6.87284451 2.5625 10.3125 C2.9327832 11.77719727 2.9327832 11.77719727 3.31054688 13.27148438 C3.53935547 14.20927734 3.76816406 15.14707031 4.00390625 16.11328125 C4.21861572 16.97735596 4.4333252 17.84143066 4.65454102 18.73168945 C5 21 5 21 4 24 C3.62488281 23.46890625 3.24976563 22.9378125 2.86328125 22.390625 C-2.51653385 14.964583 -7.92572905 10.22576457 -17 8 C-19.83665787 7.68605333 -22.64722281 7.58674908 -25.5 7.5625 C-26.56021362 7.54751465 -26.56021362 7.54751465 -27.6418457 7.53222656 C-29.88513232 7.53275963 -29.88513232 7.53275963 -33 8 C-35.26954631 11.40431947 -35.36549949 13.16524202 -35.625 17.1875 C-35.69976563 18.27417969 -35.77453125 19.36085937 -35.8515625 20.48046875 C-35.90054687 21.31191406 -35.94953125 22.14335937 -36 23 C-33.43593328 22.91262287 -30.87517784 22.80570881 -28.3125 22.6875 C-27.2306543 22.65366211 -27.2306543 22.65366211 -26.12695312 22.61914062 C-21.65557803 22.39455101 -18.64339549 21.84576902 -15 19 C-14.34 18.01 -13.68 17.02 -13 16 C-12.32364936 19.20636973 -11.66067552 22.41536689 -11 25.625 C-10.80921875 26.52863281 -10.6184375 27.43226563 -10.421875 28.36328125 C-9.47789602 32.98203556 -8.74785232 37.25647172 -9 42 C-11.19095317 39.80904683 -12.34234249 37.51308046 -13.70703125 34.75390625 C-15.81563135 31.89359977 -18.3729908 30.28526965 -21.907547 29.6655426 C-24.04456835 29.48348605 -26.16885343 29.37954882 -28.3125 29.3125 C-29.05306641 29.27833984 -29.79363281 29.24417969 -30.55664062 29.20898438 C-32.37058164 29.12706446 -34.18526353 29.06184178 -36 29 C-35.88178327 34.35700426 -35.75753701 39.71382175 -35.62768555 45.07055664 C-35.58435713 46.89310904 -35.54268053 48.71570148 -35.50268555 50.53833008 C-35.44493238 53.15718661 -35.38125244 55.77584195 -35.31640625 58.39453125 C-35.29969376 59.21025101 -35.28298126 60.02597076 -35.26576233 60.8664093 C-35.17986755 64.14179544 -35.04247866 66.87256401 -34 70 C-27.55442594 73.22278703 -15.65136739 71.64773883 -9 69.5 C0.13684922 65.54255011 5.89511634 58.91110423 10 50 C10.66 50 11.32 50 12 50 C10.95175335 55.781715 9.02435086 61.20171701 7.125 66.75 C6.59712891 68.34908203 6.59712891 68.34908203 6.05859375 69.98046875 C5.53845703 71.49833984 5.53845703 71.49833984 5.0078125 73.046875 C4.53819092 74.43664551 4.53819092 74.43664551 4.05908203 75.85449219 C3.70958496 76.56250977 3.36008789 77.27052734 3 78 C-0.15931672 79.05310557 -2.26155771 79.08751872 -5.57299805 79.02172852 C-6.71395432 79.00163223 -7.85491058 78.98153595 -9.03044128 78.96083069 C-10.26176285 78.93379562 -11.49308441 78.90676056 -12.76171875 78.87890625 C-14.02264847 78.85529526 -15.28357819 78.83168427 -16.5827179 78.80735779 C-19.93158632 78.74370794 -23.28029935 78.67550343 -26.62902832 78.60510254 C-30.04753386 78.53435247 -33.466152 78.46957548 -36.88476562 78.40429688 C-43.58996135 78.27504366 -50.29501603 78.1397856 -57 78 C-56 76 -56 76 -53.5 74.5625 C-50.70844517 73.18680459 -50.70844517 73.18680459 -50 70 C-49.89614166 68.01248489 -49.85141826 66.02168141 -49.83886719 64.03149414 C-49.82925964 62.80334488 -49.8196521 61.57519562 -49.80975342 60.30982971 C-49.80490599 58.96827378 -49.80062703 57.62671569 -49.796875 56.28515625 C-49.79112143 54.90897113 -49.78536372 53.53278603 -49.77960205 52.15660095 C-49.76910309 49.27244697 -49.76325291 46.38832079 -49.75976562 43.50415039 C-49.75427693 39.81076499 -49.73023673 36.11774751 -49.70179367 32.42447758 C-49.68316116 29.58230009 -49.67796143 26.74021123 -49.67642975 23.89797783 C-49.67340508 22.53642193 -49.66538273 21.17486753 -49.65224457 19.81337166 C-49.63517004 17.90828888 -49.63891118 16.00305402 -49.64355469 14.09790039 C-49.63990906 13.01440811 -49.63626343 11.93091583 -49.63250732 10.81459045 C-50.04793306 7.63288537 -50.80941125 6.30261926 -53 4 C-55.08334635 2.7483533 -55.08334635 2.7483533 -57 2 C-57 1.67 -57 1.34 -57 1 C-49.20378066 0.85733099 -41.40755623 0.71494318 -33.61132812 0.57275391 C-30.95735558 0.52431663 -28.30338422 0.4758142 -25.64941406 0.42724609 C-21.84179996 0.35757728 -18.03418169 0.28814029 -14.2265625 0.21875 C-13.03382721 0.19687622 -11.84109192 0.17500244 -10.61221313 0.15246582 C-8.96072769 0.12243469 -8.96072769 0.12243469 -7.27587891 0.09179688 C-6.30325104 0.07403198 -5.33062317 0.05626709 -4.32852173 0.03796387 C-2.88581739 0.01444223 -1.44289607 0 0 0 Z " fill="#EBAD41" transform="translate(1138,180)"/>
<path d="M0 0 C5.17303891 1.4520811 10.22373085 1.15779613 15.5625 1 C16.2357656 3.89444095 16.90130404 6.79030013 17.5625 9.6875 C17.75328125 10.50412109 17.9440625 11.32074219 18.140625 12.16210938 C19.04983916 16.17239326 19.83250098 19.85717252 19.5625 24 C18.94375 23.1646875 18.94375 23.1646875 18.3125 22.3125 C17.04219605 20.63388406 15.72264877 18.99217853 14.375 17.375 C12.5625 15 12.5625 15 12.5625 13 C11.985 12.71382812 11.4075 12.42765625 10.8125 12.1328125 C9.40374382 11.4235429 8.00558202 10.69234773 6.625 9.9296875 C-0.1928728 6.44327527 -7.25794365 5.60993103 -14.72265625 7.61328125 C-18.25768709 9.02222621 -18.25768709 9.02222621 -20.4375 12 C-21.18887168 14.8707236 -21.18887168 14.8707236 -20.4375 18 C-15.01648351 22.72897183 -8.72586271 24.22750191 -1.94189453 26.12963867 C9.40570587 29.31921436 19.93493839 32.76943498 26.5625 43.125 C29.01550392 50.30649175 28.6390602 58.5568147 25.5625 65.4375 C21.31097444 72.81479505 14.64993265 76.82237567 6.5625 79 C3.38142288 79.37374697 0.26171316 79.37668967 -2.9375 79.3125 C-3.74058594 79.31572266 -4.54367187 79.31894531 -5.37109375 79.32226562 C-9.30565429 79.28719256 -12.87770635 78.99918967 -16.6875 77.98828125 C-19.99676627 77.1161517 -22.5501644 76.78090734 -25.9375 76.875 C-26.7934375 76.89304687 -27.649375 76.91109375 -28.53125 76.9296875 C-29.1603125 76.95289063 -29.789375 76.97609375 -30.4375 77 C-31.10575948 74.66711219 -31.77231274 72.33376408 -32.4375 70 C-32.79070312 68.76121094 -33.14390625 67.52242188 -33.5078125 66.24609375 C-33.85585937 64.98925781 -34.20390625 63.73242188 -34.5625 62.4375 C-34.91570312 61.17808594 -35.26890625 59.91867188 -35.6328125 58.62109375 C-36.37821538 55.26678077 -36.59550833 52.41824678 -36.4375 49 C-34.47779003 50.95970997 -33.7966079 52.21146525 -32.6875 54.6875 C-28.44727639 63.22984829 -23.21502693 67.34395608 -14.4375 71 C-6.72645503 73.57034832 2.27109283 72.42276488 9.5625 69 C13.30180835 66.08333949 14.27901988 64.74340272 15.03125 60.1171875 C15.46015433 53.83148027 15.46015433 53.83148027 12.50097656 48.5 C9.17024465 45.66627661 5.98139155 44.38066777 1.8828125 43.09765625 C1.15182343 42.85260849 0.42083435 42.60756073 -0.33230591 42.35508728 C-3.43346486 41.31558561 -6.54535402 40.31030907 -9.65771484 39.30493164 C-28.55138641 33.15465827 -28.55138641 33.15465827 -32.57617188 25.96630859 C-34.46258564 21.65985268 -34.19413289 16.44708486 -32.8203125 12.00390625 C-29.7632813 5.93042391 -24.27429591 2.17753793 -18.125 -0.375 C-11.9843387 -1.41579005 -6.02014959 -1.75131625 0 0 Z " fill="#ECAE41" transform="translate(1194.4375,180)"/>
<path d="M0 0 C5.17303891 1.4520811 10.22373085 1.15779613 15.5625 1 C16.2357656 3.89444095 16.90130404 6.79030013 17.5625 9.6875 C17.75328125 10.50412109 17.9440625 11.32074219 18.140625 12.16210938 C19.04983916 16.17239326 19.83250098 19.85717252 19.5625 24 C18.94375 23.1646875 18.94375 23.1646875 18.3125 22.3125 C17.04219605 20.63388406 15.72264877 18.99217853 14.375 17.375 C12.5625 15 12.5625 15 12.5625 13 C11.985 12.71382812 11.4075 12.42765625 10.8125 12.1328125 C9.40374382 11.4235429 8.00558202 10.69234773 6.625 9.9296875 C-0.1928728 6.44327527 -7.25794365 5.60993103 -14.72265625 7.61328125 C-18.25768709 9.02222621 -18.25768709 9.02222621 -20.4375 12 C-21.18887168 14.8707236 -21.18887168 14.8707236 -20.4375 18 C-15.01648351 22.72897183 -8.72586271 24.22750191 -1.94189453 26.12963867 C9.40570587 29.31921436 19.93493839 32.76943498 26.5625 43.125 C29.01550392 50.30649175 28.6390602 58.5568147 25.5625 65.4375 C21.31097444 72.81479505 14.64993265 76.82237567 6.5625 79 C3.38142288 79.37374697 0.26171316 79.37668967 -2.9375 79.3125 C-3.74058594 79.31572266 -4.54367187 79.31894531 -5.37109375 79.32226562 C-9.30565429 79.28719256 -12.87770635 78.99918967 -16.6875 77.98828125 C-19.99676627 77.1161517 -22.5501644 76.78090734 -25.9375 76.875 C-26.7934375 76.89304687 -27.649375 76.91109375 -28.53125 76.9296875 C-29.1603125 76.95289063 -29.789375 76.97609375 -30.4375 77 C-31.10575948 74.66711219 -31.77231274 72.33376408 -32.4375 70 C-32.79070313 68.76121094 -33.14390625 67.52242188 -33.5078125 66.24609375 C-33.85585938 64.98925781 -34.20390625 63.73242188 -34.5625 62.4375 C-34.91570313 61.17808594 -35.26890625 59.91867188 -35.6328125 58.62109375 C-36.37821538 55.26678077 -36.59550833 52.41824678 -36.4375 49 C-34.47779003 50.95970997 -33.7966079 52.21146525 -32.6875 54.6875 C-28.44727639 63.22984829 -23.21502693 67.34395608 -14.4375 71 C-6.72645503 73.57034832 2.27109283 72.42276488 9.5625 69 C13.30180835 66.08333949 14.27901988 64.74340272 15.03125 60.1171875 C15.46015433 53.83148027 15.46015433 53.83148027 12.50097656 48.5 C9.17024465 45.66627661 5.98139155 44.38066777 1.8828125 43.09765625 C1.15182343 42.85260849 0.42083435 42.60756073 -0.33230591 42.35508728 C-3.43346486 41.31558561 -6.54535402 40.31030907 -9.65771484 39.30493164 C-28.55138641 33.15465827 -28.55138641 33.15465827 -32.57617188 25.96630859 C-34.46258564 21.65985268 -34.19413289 16.44708486 -32.8203125 12.00390625 C-29.7632813 5.93042391 -24.27429591 2.17753793 -18.125 -0.375 C-11.9843387 -1.41579005 -6.02014959 -1.75131625 0 0 Z " fill="#ECAE41" transform="translate(575.4375,57)"/>
<path d="M0 0 C10.23 0 20.46 0 31 0 C30.67 1.65 30.34 3.3 30 5 C44.20333515 17.36504334 44.20333515 17.36504334 59 29 C58.91852902 25.79067345 58.80574254 22.58316561 58.6875 19.375 C58.65366211 18.01955078 58.65366211 18.01955078 58.61914062 16.63671875 C58.40959072 11.41702122 57.9697111 7.48368146 55 3 C52.92309422 2.03955898 52.92309422 2.03955898 51 2 C51 1.34 51 0.68 51 0 C58.59 0 66.18 0 74 0 C72.62736683 2.74526635 70.59407253 3.44355648 68 5 C66.66037539 7.67924921 66.8654828 9.74723167 66.85473633 12.74731445 C66.84835648 13.9522908 66.84197662 15.15726715 66.83540344 16.39875793 C66.83429062 17.70705063 66.8331778 19.01534332 66.83203125 20.36328125 C66.82881822 21.71608007 66.82545412 23.06887855 66.82194519 24.42167664 C66.81595197 27.26053675 66.8141054 30.09936642 66.81469727 32.93823242 C66.81479871 36.56981263 66.80116566 40.20119654 66.78392506 43.83273029 C66.77278466 46.62862538 66.77077871 49.4244734 66.77130699 52.22038841 C66.76955754 54.20840783 66.75872648 56.19641255 66.74775696 58.18440247 C66.7523719 60.00605171 66.7523719 60.00605171 66.75708008 61.86450195 C66.75565506 62.93102493 66.75423004 63.99754791 66.75276184 65.09638977 C67.01247859 68.14655088 67.59869207 70.28502522 69 73 C71.53188648 74.75322937 71.53188648 74.75322937 74 76 C74 76.33 74 76.66 74 77 C66.41 77 58.82 77 51 77 C52 75 52 75 53.9375 74.125 C56.51572929 72.71869312 56.91947123 71.69866053 58 69 C58.43803256 65.55242611 58.3702429 62.09768248 58.375 58.625 C58.41173828 57.22507812 58.41173828 57.22507812 58.44921875 55.796875 C58.47384177 50.00225792 57.97552856 46.51919058 54 42 C51.67761015 39.78562304 51.67761015 39.78562304 49.0625 37.8125 C44.80971433 34.44311588 40.62664339 31.02108332 36.5 27.5 C25.93354791 18.52164964 25.93354791 18.52164964 15 10 C15.061289 17.60651701 15.13845108 25.21273369 15.23571491 32.81887341 C15.28038664 36.35098666 15.31964938 39.88298544 15.34643555 43.4152832 C15.3774908 47.47897322 15.43227834 51.54204542 15.48828125 55.60546875 C15.49467117 56.8702153 15.5010611 58.13496185 15.50764465 59.43803406 C15.53733589 61.20930412 15.53733589 61.20930412 15.56762695 63.01635742 C15.57873001 64.05338303 15.58983307 65.09040863 15.60127258 66.15885925 C16.06875785 69.48993551 16.99728981 71.31086624 19 74 C20.32 74.99 21.64 75.98 23 77 C15.41 77 7.82 77 0 77 C1 75 1 75 2.9375 74.1875 C5.76575057 72.55911331 6.02094699 71.07937592 7 68 C7.30627101 65.1556407 7.30627101 65.1556407 7.2746582 62.11157227 C7.28419022 60.95009171 7.29372223 59.78861115 7.30354309 58.5919342 C7.30263168 57.34600998 7.30172028 56.10008575 7.30078125 54.81640625 C7.30506638 53.52814438 7.3093515 52.23988251 7.31376648 50.9125824 C7.32121206 48.18997066 7.32094952 45.46748864 7.31567383 42.74487305 C7.30988064 39.26692899 7.32681387 35.78951774 7.3500185 32.31166172 C7.36834765 28.97988809 7.36456957 25.64822996 7.36328125 22.31640625 C7.372491 21.07250626 7.38170074 19.82860626 7.39118958 18.54701233 C7.45120733 10.26678769 7.45120733 10.26678769 4 3 C1.92309422 2.03955898 1.92309422 2.03955898 0 2 C0 1.34 0 0.68 0 0 Z " fill="#EDAF42" transform="translate(842,181)"/>
<path d="M0 0 C0.66 0 1.32 0 2 0 C2.6986179 2.91440599 3.3842031 5.83086087 4.0625 8.75 C4.26166016 9.575 4.46082031 10.4 4.66601562 11.25 C4.84970703 12.04921875 5.03339844 12.8484375 5.22265625 13.671875 C5.39547119 14.4050293 5.56828613 15.13818359 5.74633789 15.89355469 C6.02424428 18.20132783 5.69809241 19.79916037 5 22 C4.505 21.13375 4.01 20.2675 3.5 19.375 C-0.45556521 13.45567901 -6.18861587 9.81083139 -13 8 C-21.09528144 7.24161851 -29.3866056 6.66204595 -36 12 C-41.85353329 17.30308635 -44.94513878 23.60816505 -45.46875 31.515625 C-45.50290272 33.09341479 -45.51268395 34.67189159 -45.5 36.25 C-45.49427979 37.08120361 -45.48855957 37.91240723 -45.48266602 38.76879883 C-45.19067223 48.90206467 -41.86828255 56.96674316 -34.82421875 64.31640625 C-26.72937244 71.78723871 -19.66769516 73.43653964 -8.6328125 73.2421875 C-1.0586754 72.73724503 3.29437821 70.45866503 8.45703125 64.91796875 C10.7173551 62.10830037 12.36226162 59.20996723 14 56 C15.24540698 59.51395284 14.76387905 61.36669027 13.34765625 64.765625 C12.98349609 65.65507813 12.61933594 66.54453125 12.24414062 67.4609375 C11.85419922 68.38132812 11.46425781 69.30171875 11.0625 70.25 C10.67642578 71.18585938 10.29035156 72.12171875 9.89257812 73.0859375 C8.93833169 75.39497827 7.97388338 77.69918862 7 80 C2.66249365 80.10022677 -1.67436737 80.1720945 -6.01269531 80.21972656 C-7.48286709 80.23961976 -8.95296215 80.26674472 -10.42285156 80.30175781 C-25.90531404 80.66083266 -37.50965582 77.52296287 -49.22265625 67.00390625 C-57.56027823 58.51044087 -60.40886698 48.9127488 -60.5 37.25 C-60.50644531 36.47027832 -60.51289062 35.69055664 -60.51953125 34.88720703 C-60.31627485 25.64490398 -57.4733965 17.67739009 -51 11 C-39.96715132 1.6370893 -29.93749037 0.57166401 -16 0.875 C-13.85956462 0.9100891 -11.71918369 0.94079509 -9.57861328 0.96633911 C-7.65774868 0.99096633 -5.73705674 1.0281158 -3.81640625 1.06591797 C-1.09636983 1.32649246 -1.09636983 1.32649246 0 0 Z " fill="#ECAE41" transform="translate(1141,56)"/>
<path d="M0 0 C0.14695313 0.73605469 0.29390625 1.47210938 0.4453125 2.23046875 C1.97250393 8.87462918 3.19612238 12.29539726 9 16 C12.45844824 17.72922412 16.21165265 17.35136443 20 17 C24.70005528 15.31507452 27.40089503 13.26995816 30 9 C30.87852981 6.02997024 31.49431505 3.05407093 32 0 C44.91885502 0.34358657 59.36780857 0.87419604 70 9 C70.495 9.99 70.495 9.99 71 11 C61.43688618 21.09439792 46.9252802 21.78172009 33.60693359 22.21289062 C27.50882496 22.35482409 21.41204318 22.37968171 15.3125 22.375 C13.79961395 22.3774472 13.79961395 22.3774472 12.25616455 22.37994385 C1.67544234 22.37801137 -8.62327701 22.31273275 -19 20 C-20.25554688 19.76539063 -21.51109375 19.53078125 -22.8046875 19.2890625 C-28.68923846 18.01632247 -33.32506546 16.87351719 -38 13 C-38 10.75 -38 10.75 -37 8 C-26.46315461 1.11052417 -12.3702647 -0.26319712 0 0 Z " fill="#EEB043" transform="translate(79,216)"/>
<path d="M0 0 C0.20496094 0.68707031 0.40992188 1.37414062 0.62109375 2.08203125 C0.89050781 2.98308594 1.15992188 3.88414062 1.4375 4.8125 C1.70433594 5.70582031 1.97117188 6.59914063 2.24609375 7.51953125 C3.13222944 11.4300559 3.13222944 11.4300559 5.8125 14.0625 C6.534375 14.371875 7.25625 14.68125 8 15 C8.598125 15.37125 9.19625 15.7425 9.8125 16.125 C13.65572311 17.66228925 17.15714157 17.60624876 21.08984375 16.3125 C25.93426036 14.1473976 28.5369172 11.83143165 31 7 C31.81449111 4.67355126 32.42323913 2.40317028 33 0 C40.34829425 -0.51870312 47.14960404 0.19624566 54.3125 1.75 C55.06450684 1.90694336 55.81651367 2.06388672 56.59130859 2.22558594 C61.67155094 3.39544506 65.5862006 5.22461227 70 8 C70 9.65 70 11.3 70 13 C45.61503239 27.83028078 3.44009429 24.98592044 -23.35546875 19.1171875 C-29.10430926 17.60402119 -33.69263431 16.2758099 -38 12 C-38 10.68 -38 9.36 -38 8 C-26.20574643 0.97895023 -13.54281138 -0.61662042 0 0 Z " fill="#EEB043" transform="translate(191,298)"/>
<path d="M0 0 C19.8 0 39.6 0 60 0 C65 20 65 20 64 23 C63.62488281 22.46890625 63.24976563 21.9378125 62.86328125 21.390625 C55.45808784 11.16884669 48.1900899 8.99286418 36 7 C36.08446772 15.12799333 36.17937575 23.25576973 36.28752708 31.38347912 C36.33742269 35.15771513 36.3837531 38.93192407 36.421875 42.70629883 C36.45881322 46.35039093 36.50519591 49.99425276 36.55806351 53.63814735 C36.57656221 55.02672591 36.59168682 56.41535374 36.60334396 57.80400658 C36.62028326 59.75249335 36.6504508 61.7008514 36.68115234 63.64916992 C36.69447601 64.7572551 36.70779968 65.86534027 36.7215271 67.00700378 C37.00765237 70.08224688 37.56969867 72.26836519 39 75 C41.52372901 76.36078035 41.52372901 76.36078035 44 77 C44 77.33 44 77.66 44 78 C34.76 78 25.52 78 16 78 C20 75 20 75 22 75 C22.88739248 71.16917833 23.15021286 67.57768307 23.20532227 63.64916992 C23.22526749 62.3882402 23.24521271 61.12731049 23.26576233 59.82817078 C23.28274268 58.46227133 23.29962163 57.09637062 23.31640625 55.73046875 C23.33699474 54.32513341 23.3579917 52.919804 23.37937927 51.51448059 C23.43440435 47.82712627 23.48389933 44.13971788 23.53222656 40.45227051 C23.58258504 36.68492864 23.638196 32.91766466 23.69335938 29.15039062 C23.80070141 21.76699317 23.90219888 14.38353066 24 7 C21.59471594 7.44682473 19.19167026 7.90246326 16.7890625 8.36328125 C16.11238525 8.48803833 15.43570801 8.61279541 14.73852539 8.74133301 C8.27809289 9.99370535 3.43511324 11.77317506 -0.5859375 17.1015625 C-1.82028718 19.03151256 -2.94975206 20.96514461 -4 23 C-6.46080384 15.61758847 -1.88735039 7.54940157 0 0 Z " fill="#EDAF42" transform="translate(1009,180)"/>
<path d="M0 0 C1.32 0.33 2.64 0.66 4 1 C4 80.2 4 159.4 4 241 C2.02 241 0.04 241 -2 241 C-2.04558851 210.58686363 -2.08100038 180.17373077 -2.10213066 149.76056806 C-2.10463218 146.17306094 -2.10722082 142.58555389 -2.10986328 138.99804688 C-2.1103879 138.28381457 -2.11091252 137.56958226 -2.11145304 136.83370654 C-2.12016452 125.25673154 -2.13593856 113.67977633 -2.15430559 102.10281308 C-2.17298401 90.23089438 -2.18411235 78.35898607 -2.18817699 66.48705328 C-2.19067913 59.81577899 -2.1969622 53.14454417 -2.21146011 46.47328568 C-2.22498146 40.20089374 -2.22923374 33.92856548 -2.22621536 27.65616035 C-2.22676798 25.34781486 -2.23077769 23.03946735 -2.23841095 20.73113441 C-2.24828701 17.59196776 -2.24599588 14.453045 -2.24050903 11.31387329 C-2.24633472 10.38976233 -2.2521604 9.46565137 -2.25816262 8.51353705 C-2.22824242 2.22824242 -2.22824242 2.22824242 0 0 Z " fill="#424241" transform="translate(206,0)"/>
<path d="M0 0 C9.24 0 18.48 0 28 0 C28 0.66 28 1.32 28 2 C26.02 2.33 24.04 2.66 22 3 C21.00394815 6.32155568 20.86757714 9.3463724 20.85473633 12.80664062 C20.84835648 13.9746521 20.84197662 15.14266357 20.83540344 16.34606934 C20.83429062 17.60342896 20.8331778 18.86078857 20.83203125 20.15625 C20.82870285 21.45067017 20.82537445 22.74509033 20.82194519 24.07873535 C20.8159658 26.81568231 20.81410414 29.55259775 20.81469727 32.28955078 C20.814799 35.79338017 20.80113001 39.29700743 20.78392506 42.80078888 C20.77012499 46.14844574 20.77071632 49.49606505 20.76953125 52.84375 C20.76234573 54.10110962 20.75516022 55.35846924 20.74775696 56.65393066 C20.75083359 57.82194214 20.75391022 58.98995361 20.75708008 60.19335938 C20.75565506 61.22054077 20.75423004 62.24772217 20.75276184 63.30603027 C21.00290819 66.03168836 21.60077755 67.6740401 23 70 C34.54304392 70.59877461 42.74009931 69.78827754 51.8125 62.3125 C55.96412627 58.40378803 58.6258654 54.15390024 61 49 C61.66 49 62.32 49 63 49 C62.04147642 52.34642444 61.02637665 55.67377937 60 59 C59.66210449 60.10093994 59.66210449 60.10093994 59.31738281 61.22412109 C58.55853484 63.67475367 57.78105575 66.118863 57 68.5625 C56.7510498 69.37251465 56.50209961 70.1825293 56.24560547 71.01708984 C55.58853803 73.04337049 54.80336773 75.02714644 54 77 C50.98480678 78.00506441 49.11941717 78.0915426 45.9777832 78.02172852 C44.95695145 78.00163223 43.93611969 77.98153595 42.88435364 77.96083069 C41.78427475 77.93379562 40.68419586 77.90676056 39.55078125 77.87890625 C37.85915108 77.84348976 37.85915108 77.84348976 36.13334656 77.80735779 C32.52627042 77.73069718 28.91940767 77.64668276 25.3125 77.5625 C22.86915112 77.50928174 20.42579177 77.45654133 17.98242188 77.40429688 C11.98814881 77.27507873 5.99403463 77.13982023 0 77 C0.804375 76.236875 1.60875 75.47375 2.4375 74.6875 C6.09215354 70.85457068 6.13208376 68.15069046 6.19287109 63.04736328 C6.20893402 61.82244171 6.22499695 60.59752014 6.24154663 59.33547974 C6.25303282 57.99709773 6.26364158 56.65870795 6.2734375 55.3203125 C6.28142302 54.30777216 6.28142302 54.30777216 6.28956985 53.27477646 C6.31626545 49.70288988 6.33565311 46.13103785 6.35009766 42.55908203 C6.3634447 39.60629348 6.39131422 36.65419475 6.43212891 33.70166016 C6.48146964 30.13195854 6.50621953 26.56288312 6.51332474 22.99285507 C6.5200318 21.63486769 6.53524018 20.276894 6.55921555 18.91910172 C6.96162973 11.74901656 6.96162973 11.74901656 4.88653564 5.0980835 C3.4270779 3.57365479 3.4270779 3.57365479 1 2 C0.67 1.34 0.34 0.68 0 0 Z " fill="#EDAF42" transform="translate(552,181)"/>
<path d="M0 0 C0 0.66 0 1.32 0 2 C-30.36 2.66 -60.72 3.32 -92 4 C-61.64 4.33 -31.28 4.66 0 5 C0 5.66 0 6.32 0 7 C-14.44488397 7.02394203 -28.88976516 7.04126612 -43.3346653 7.05181217 C-50.04994063 7.05685086 -56.76520066 7.06377863 -63.48046875 7.07543945 C-93.36405861 7.12588345 -123.22874076 7.00048091 -153.10852051 6.45816231 C-174.68957122 6.06821632 -196.26752559 5.84880083 -217.8515625 5.71875 C-219.41803115 5.70911656 -220.98449971 5.69946731 -222.55096817 5.68980217 C-235.1965042 5.61224616 -247.84207818 5.54157016 -260.4876709 5.47393799 C-269.29148487 5.42679755 -278.09527767 5.37763819 -286.89904535 5.32245111 C-290.6367661 5.29919713 -294.37447844 5.27758958 -298.11223221 5.26036072 C-313.76597048 5.18771454 -329.37391859 4.99638416 -345 4 C-345 3.67 -345 3.34 -345 3 C-313.90212769 2.61140859 -282.80418899 2.22870724 -251.70615313 1.85345319 C-247.97540693 1.80843015 -244.2446613 1.76336044 -240.51391602 1.71826172 C-239.40053839 1.70480395 -239.40053839 1.70480395 -238.26466828 1.69107431 C-227.92881889 1.56604538 -217.59300296 1.43852625 -207.25720994 1.30892408 C-189.40201682 1.08503774 -171.54676863 0.86623605 -153.69140625 0.65625 C-152.99298491 0.64802515 -152.29456356 0.63980029 -151.57497793 0.6313262 C-101.04928725 0.03728152 -50.52914137 -0.20565332 0 0 Z " fill="#E5A63E" transform="translate(866,320)"/>
<path d="M0 0 C5.98801758 3.64350276 11.61444058 8.23326896 14 15 C14.822912 20.5105714 14.95410205 25.93973648 12.375 31 C8.75329275 35.57478811 4.52986518 38.25412116 -1 40 C-4.06680718 40.28442898 -7.10956969 40.27947739 -10.1875 40.25 C-11.00669922 40.25773437 -11.82589844 40.26546875 -12.66992188 40.2734375 C-18.74656792 40.25343208 -18.74656792 40.25343208 -21 38 C-21.17495606 35.49079154 -21.23169569 33.09375059 -21.1953125 30.5859375 C-21.1924826 29.85629791 -21.18965271 29.12665833 -21.18673706 28.37490845 C-21.17553002 26.04143972 -21.1504251 23.70835297 -21.125 21.375 C-21.11497085 19.79427637 -21.10584489 18.21354673 -21.09765625 16.6328125 C-21.07558905 12.75506086 -21.04105615 8.87759522 -21 5 C-19.06305322 4.18618205 -17.12542289 3.37399084 -15.1875 2.5625 C-14.10855469 2.11003906 -13.02960937 1.65757813 -11.91796875 1.19140625 C-7.27943062 -0.70250825 -4.87479233 -1.44438291 0 0 Z " fill="#985317" transform="translate(999,89)"/>
<path d="M0 0 C38.56525242 -0.09617511 77.11865552 0.12112733 115.68126381 0.58063003 C122.96427623 0.66727336 130.24733256 0.74994389 137.53039216 0.83250958 C150.50369019 0.97968064 163.47695322 1.12972074 176.45019531 1.28173828 C189.00388828 1.4288331 201.55759688 1.57446882 214.11132812 1.71826172 C214.89361798 1.72722271 215.67590784 1.73618369 216.48190345 1.74541622 C220.40895342 1.79039125 224.3360037 1.83533886 228.26305413 1.88027287 C260.50875247 2.24926893 292.75439428 2.6229931 325 3 C325 3.33 325 3.66 325 4 C228.49447744 6.95260379 131.79427797 7.13636467 0 7 C0 6.34 0 5.68 0 5 C0.56074722 4.98969254 1.12149445 4.97938507 1.69923401 4.96876526 C7.55586373 4.86026045 13.41235319 4.74570067 19.26879883 4.62768555 C21.45203709 4.58447714 23.63530608 4.54279261 25.81860352 4.50268555 C28.96379846 4.44464025 32.10884075 4.3810458 35.25390625 4.31640625 C36.2239711 4.29969376 37.19403595 4.28298126 38.1934967 4.26576233 C39.11392258 4.24581711 40.03434845 4.22587189 40.98266602 4.20532227 C41.78430679 4.18977798 42.58594757 4.1742337 43.41188049 4.15821838 C46.62515543 3.96178264 49.81308168 3.45527405 53 3 C35.51 2.67 18.02 2.34 0 2 C0 1.34 0 0.68 0 0 Z " fill="#E4A53D" transform="translate(916,320)"/>
<path d="M0 0 C9.24 0 18.48 0 28 0 C27 2 27 2 25.0625 2.875 C22.45954868 4.29479163 22.06238964 5.25347831 21 8 C20.69123333 10.78563493 20.69123333 10.78563493 20.7253418 13.86669922 C20.71580978 15.04827606 20.70627777 16.22985291 20.69645691 17.44723511 C20.69782402 19.35667404 20.69782402 19.35667404 20.69921875 21.3046875 C20.69493362 22.61656036 20.6906485 23.92843323 20.68623352 25.28005981 C20.67877945 28.05572553 20.67905621 30.83126405 20.68432617 33.60693359 C20.69011389 37.15328394 20.67320345 40.69911082 20.6499815 44.24537468 C20.63165045 47.64016701 20.63543061 51.034846 20.63671875 54.4296875 C20.627509 55.69859833 20.61829926 56.96750916 20.60881042 58.27487183 C20.61815361 60.05669357 20.61815361 60.05669357 20.62768555 61.87451172 C20.62705612 62.91501678 20.6264267 63.95552185 20.6257782 65.02755737 C21.07569161 68.60121826 22.11505322 70.93835858 24 74 C25.32 74.99 26.64 75.98 28 77 C18.76 77 9.52 77 0 77 C1.26422764 74.47154472 2.52845528 74.23577236 5 73 C6.38850277 70.22299446 6.12722836 67.96099734 6.12939453 64.85375977 C6.13412277 62.91648766 6.13412277 62.91648766 6.13894653 60.94007874 C6.13715651 59.52385423 6.1351055 58.10763003 6.1328125 56.69140625 C6.13348591 55.24413537 6.13445625 53.79686461 6.13571167 52.34959412 C6.13718735 49.31402511 6.13503856 46.27848551 6.13037109 43.24291992 C6.12467896 39.35112697 6.12795035 35.45940306 6.13394356 31.56761265 C6.13755701 28.57793152 6.13640688 25.58826675 6.13381577 22.59858513 C6.1331484 21.16365488 6.13396827 19.72872315 6.13629532 18.29379463 C6.13883406 16.28774163 6.13427871 14.28168343 6.12939453 12.27563477 C6.12859894 11.13361099 6.12780334 9.99158722 6.12698364 8.81495667 C6.12476104 5.91902552 6.12476104 5.91902552 5 3 C3.35 2.67 1.7 2.34 0 2 C0 1.34 0 0.68 0 0 Z " fill="#EBAD41" transform="translate(801,181)"/>
<path d="M0 0 C9.24 0 18.48 0 28 0 C27 2 27 2 25.0625 2.875 C22.45954868 4.29479163 22.06238964 5.25347831 21 8 C20.69123333 10.78563493 20.69123333 10.78563493 20.7253418 13.86669922 C20.71580978 15.04827606 20.70627777 16.22985291 20.69645691 17.44723511 C20.69782402 19.35667404 20.69782402 19.35667404 20.69921875 21.3046875 C20.69493362 22.61656036 20.6906485 23.92843323 20.68623352 25.28005981 C20.67877945 28.05572553 20.67905621 30.83126405 20.68432617 33.60693359 C20.69011389 37.15328394 20.67320345 40.69911082 20.6499815 44.24537468 C20.63165045 47.64016701 20.63543061 51.034846 20.63671875 54.4296875 C20.627509 55.69859833 20.61829926 56.96750916 20.60881042 58.27487183 C20.61815361 60.05669357 20.61815361 60.05669357 20.62768555 61.87451172 C20.62705612 62.91501678 20.6264267 63.95552185 20.6257782 65.02755737 C21.07569161 68.60121826 22.11505322 70.93835858 24 74 C25.32 74.99 26.64 75.98 28 77 C18.76 77 9.52 77 0 77 C1.26422764 74.47154472 2.52845528 74.23577236 5 73 C6.38850277 70.22299446 6.12722836 67.96099734 6.12939453 64.85375977 C6.13412277 62.91648766 6.13412277 62.91648766 6.13894653 60.94007874 C6.13715651 59.52385423 6.1351055 58.10763003 6.1328125 56.69140625 C6.13348591 55.24413537 6.13445625 53.79686461 6.13571167 52.34959412 C6.13718735 49.31402511 6.13503856 46.27848551 6.13037109 43.24291992 C6.12467896 39.35112697 6.12795035 35.45940306 6.13394356 31.56761265 C6.13755701 28.57793152 6.13640688 25.58826675 6.13381577 22.59858513 C6.1331484 21.16365488 6.13396827 19.72872315 6.13629532 18.29379463 C6.13883406 16.28774163 6.13427871 14.28168343 6.12939453 12.27563477 C6.12859894 11.13361099 6.12780334 9.99158722 6.12698364 8.81495667 C6.12476104 5.91902552 6.12476104 5.91902552 5 3 C3.35 2.67 1.7 2.34 0 2 C0 1.34 0 0.68 0 0 Z " fill="#EBAD41" transform="translate(1039,58)"/>
<path d="M0 0 C9.24 0 18.48 0 28 0 C28 0.66 28 1.32 28 2 C26.7934375 2.433125 26.7934375 2.433125 25.5625 2.875 C22.8673532 3.73262568 22.8673532 3.73262568 22 6 C21.89827832 8.0108692 21.86158608 10.02514547 21.85473633 12.03857422 C21.84835648 13.30684052 21.84197662 14.57510681 21.83540344 15.88180542 C21.83387467 17.27276573 21.83276076 18.66372654 21.83203125 20.0546875 C21.82881873 21.47714268 21.82545466 22.89959752 21.82194519 24.322052 C21.8159522 27.30634324 21.81410543 30.29060551 21.81469727 33.27490234 C21.81479882 37.0971474 21.80115461 40.91920641 21.78392506 44.74140739 C21.77279994 47.68052013 21.77077823 50.619588 21.77130699 53.55871964 C21.77012734 54.96771002 21.76570637 56.37670157 21.75797462 57.78567123 C21.7481664 59.7579687 21.75231919 61.73032061 21.75708008 63.70263672 C21.75565506 64.82467499 21.75423004 65.94671326 21.75276184 67.10275269 C22.00320136 70.03751499 22.34233023 71.59177504 24 74 C25.32 74.99 26.64 75.98 28 77 C18.76 77 9.52 77 0 77 C1 75 1 75 3.5 73.5625 C6.29155483 72.18680459 6.29155483 72.18680459 7 69 C7.10370604 67.04840199 7.1485668 65.09347124 7.16113281 63.13916016 C7.17074036 61.93425934 7.1803479 60.72935852 7.19024658 59.48794556 C7.19449646 58.18481415 7.19874634 56.88168274 7.203125 55.5390625 C7.20887931 54.18769326 7.21463701 52.83632404 7.22039795 51.48495483 C7.23089764 48.6520754 7.23674708 45.81922427 7.24023438 42.98632812 C7.24571773 39.36253998 7.26974622 35.73912782 7.29820633 32.11545753 C7.31686189 29.32385171 7.32203984 26.53233595 7.32357025 23.74067307 C7.32805605 21.75705362 7.34668755 19.77348244 7.36553955 17.78994751 C7.36253845 16.57874237 7.35953735 15.36753723 7.35644531 14.11962891 C7.36009094 13.05612213 7.36373657 11.99261536 7.36749268 10.8968811 C6.94485882 7.56533167 5.99545086 5.68002683 4 3 C1.91466367 2.12177688 1.91466367 2.12177688 0 2 C0 1.34 0 0.68 0 0 Z " fill="#ECAE41" transform="translate(695,58)"/>
<path d="M0 0 C7.7201642 0.30527184 7.7201642 0.30527184 10.4375 3.125 C12.44856713 7.53387795 12.53830136 10.92948641 12.0625 15.6875 C13.42375 15.749375 13.42375 15.749375 14.8125 15.8125 C26.85969281 17.61349448 36.46462561 26.27722514 44.1875 35.125 C46.0625 37.6875 46.0625 37.6875 46.0625 39.6875 C23.31122938 38.96638207 0.20198782 32.63128123 -15.9375 15.6875 C-14.6175 15.3575 -13.2975 15.0275 -11.9375 14.6875 C-11.91171875 14.09582031 -11.8859375 13.50414062 -11.859375 12.89453125 C-11.80265625 12.10433594 -11.7459375 11.31414062 -11.6875 10.5 C-11.64109375 9.72269531 -11.5946875 8.94539062 -11.546875 8.14453125 C-9.91404418 1.56087365 -6.44975494 -0.02065023 0 0 Z " fill="#EEB042" transform="translate(206.9375,240.3125)"/>
<path d="M0 0 C1.00836914 -0.01063477 1.00836914 -0.01063477 2.03710938 -0.02148438 C4.91934424 0.01572422 6.94649679 0.09168049 9.33984375 1.77734375 C12.02773277 5.84265633 11.51407243 9.76658202 11.4375 14.4375 C13.29375 14.7159375 13.29375 14.7159375 15.1875 15 C25.60122812 17.31598685 36.02044967 24.36024335 42.12890625 33.125 C42.56533447 33.74761719 43.0017627 34.37023437 43.45141602 35.01171875 C43.77682373 35.48222656 44.10223145 35.95273438 44.4375 36.4375 C22.98950298 37.05487305 5.1685376 33.70234072 -11.9609375 20.078125 C-13.6765594 18.32065866 -14.59603454 16.6828238 -15.5625 14.4375 C-14.2425 14.4375 -12.9225 14.4375 -11.5625 14.4375 C-11.60890625 13.76203125 -11.6553125 13.0865625 -11.703125 12.390625 C-11.75726563 11.05257812 -11.75726563 11.05257812 -11.8125 9.6875 C-11.85890625 8.80578125 -11.9053125 7.9240625 -11.953125 7.015625 C-11.5625 4.4375 -11.5625 4.4375 -10.01953125 2.13671875 C-6.60163181 -0.22701139 -4.11996216 -0.06041 0 0 Z " fill="#EEB042" transform="translate(95.5625,159.5625)"/>
<path d="M0 0 C6.31637345 0.57421577 12.44535915 1.13544938 18.6875 2.0625 C19.88761719 2.23910156 21.08773438 2.41570313 22.32421875 2.59765625 C23.20722656 2.73042969 24.09023437 2.86320313 25 3 C26.39952324 7.46704718 25.07968931 10.76656424 23.625 15.0625 C23.35751953 15.87017822 23.09003906 16.67785645 22.81445312 17.51000977 C22.21447365 19.32056579 21.61106915 21.12998918 21.00488281 22.93847656 C19.89530467 26.31896973 18.84865267 29.71588163 17.8046875 33.1171875 C17.03716659 35.55751454 16.26894169 37.99762027 15.5 40.4375 C15.14502441 41.61642822 14.79004883 42.79535645 14.42431641 44.01000977 C11.43944646 53.2943985 11.43944646 53.2943985 8.09375 55.78515625 C5 57 5 57 -1 57 C-0.67 38.19 -0.34 19.38 0 0 Z " fill="#7C4829" transform="translate(1530,542)"/>
<path d="M0 0 C1.32 0.33 2.64 0.66 4 1 C4 53.14 4 105.28 4 159 C2.02 159 0.04 159 -2 159 C-2.04666832 138.56429384 -2.08196344 118.12859846 -2.10362434 97.69285011 C-2.11394806 88.20472052 -2.12802925 78.716624 -2.15087891 69.22851562 C-2.17077932 60.96112718 -2.18370846 52.69376268 -2.18817699 44.42635095 C-2.19079006 40.0466105 -2.19695452 35.66693855 -2.21146011 31.28722 C-2.2249912 27.16853504 -2.22923176 23.04994707 -2.22621536 18.93124199 C-2.22676754 17.41627285 -2.23077156 15.90130061 -2.23841095 14.38635063 C-2.24830245 12.32439163 -2.24599044 10.26280304 -2.24050903 8.20083618 C-2.24235262 7.04490778 -2.24419621 5.88897938 -2.24609566 4.69802284 C-2 2 -2 2 0 0 Z " fill="#424241" transform="translate(94,0)"/>
<path d="M0 0 C8.25 0 16.5 0 25 0 C25.06058594 2.77148438 25.12117188 5.54296875 25.18359375 8.3984375 C25.2455792 11.11248983 25.30888517 13.82650842 25.37231445 16.54052734 C25.41535903 18.41224095 25.45705238 20.28398619 25.49731445 22.15576172 C25.5557638 24.8617502 25.61923401 27.56758388 25.68359375 30.2734375 C25.70030624 31.09677582 25.71701874 31.92011414 25.73423767 32.7684021 C25.87834472 38.54905593 26.35361667 44.25442314 27 50 C23.13254547 50.30939636 20.54179074 50.24772467 16.98583984 48.62182617 C12.77424375 44.92367978 11.86637499 41.08671923 10.3515625 35.80078125 C10.04930756 34.80999069 9.74705261 33.81920013 9.43563843 32.79838562 C8.4782024 29.64219296 7.55151459 26.47789117 6.625 23.3125 C5.97983309 21.17063002 5.33271918 19.02934549 4.68359375 16.88867188 C0 1.36440132 0 1.36440132 0 0 Z " fill="#7C4829" transform="translate(1717,564)"/>
<path d="M0 0 C1.16499023 -0.0009668 1.16499023 -0.0009668 2.35351562 -0.00195312 C3.15595703 0.01802734 3.95839844 0.03800781 4.78515625 0.05859375 C5.98301758 0.04795898 5.98301758 0.04795898 7.20507812 0.03710938 C13.09942198 0.10059444 16.58587126 1.23430876 20.84765625 5.49609375 C21.35021514 9.1815256 21.018651 11.15410425 19.34765625 14.49609375 C12.33486879 22.9114387 2.51766957 27.48095829 -8.15234375 29.49609375 C-8.26849304 25.41299955 -8.33957832 21.33032998 -8.40234375 17.24609375 C-8.43585937 16.08722656 -8.469375 14.92835937 -8.50390625 13.734375 C-8.51679687 12.61933594 -8.5296875 11.50429687 -8.54296875 10.35546875 C-8.56391602 9.32905273 -8.58486328 8.30263672 -8.60644531 7.24511719 C-7.79545285 2.33556068 -4.91044238 -0.01297417 0 0 Z " fill="#965217" transform="translate(644.15234375,63.50390625)"/>
<path d="M0 0 C10.56 0 21.12 0 32 0 C32 9.25073357 32 9.25073357 27.7734375 14.30078125 C24.13880795 17.78330076 20.43508802 18.79125992 15.5625 19.5 C10.78756581 18.8298338 7.58107024 17.22374002 4 14 C0.46190326 9.17352069 0 6.12100919 0 0 Z " fill="#FEFCF8" transform="translate(191,297)"/>
<path d="M0 0 C1.22879883 0.01160156 1.22879883 0.01160156 2.48242188 0.0234375 C3.29001953 0.01570313 4.09761719 0.00796875 4.9296875 0 C10.37019934 0.01782313 14.64053207 0.24404769 18.66992188 4.2734375 C18.80726404 7.77566282 18.4543612 10.20752289 16.34179688 13.078125 C10.46329457 18.82883378 0.03058384 24.2734375 -8.33007812 24.2734375 C-8.38795596 20.64850416 -8.42363233 17.02368893 -8.45507812 13.3984375 C-8.47183594 12.36589844 -8.48859375 11.33335938 -8.50585938 10.26953125 C-8.51230469 9.28339844 -8.51875 8.29726562 -8.52539062 7.28125 C-8.53586426 6.37004395 -8.54633789 5.45883789 -8.55712891 4.52001953 C-8.03366126 -0.65949584 -4.32923731 0.01425263 0 0 Z " fill="#965217" transform="translate(986.330078125,63.7265625)"/>
<path d="M0 0 C10.56 0 21.12 0 32 0 C32 8.13513514 32 8.13513514 28 13 C23.23261319 17.3022759 19.56252705 18.36282503 13.28125 18.28125 C8.65454053 17.71083376 5.94477152 14.89370279 2.6875 11.8125 C1 9 1 9 0 0 Z " fill="#FEFEFC" transform="translate(79,216)"/>
<path d="M0 0 C3.12325249 1.56162625 3.53442839 4.64017173 4.63671875 7.7734375 C4.88041702 8.45298492 5.1241153 9.13253235 5.37519836 9.83267212 C5.88897146 11.27223586 6.39897695 12.71314891 6.90551758 14.15527344 C7.68336225 16.36325463 8.4785234 18.56444865 9.27539062 20.765625 C9.7718968 22.16368528 10.26737401 23.56211149 10.76171875 24.9609375 C11.0012175 25.62040375 11.24071625 26.27987 11.48747253 26.95932007 C13.11473913 31.6557826 13.11473913 31.6557826 12 35 C11.18273437 34.38640625 10.36546875 33.7728125 9.5234375 33.140625 C5.78091182 30.64560788 1.97538406 29.70975923 -2.375 28.75 C-3.11105469 28.57726562 -3.84710937 28.40453125 -4.60546875 28.2265625 C-6.40113016 27.8067975 -8.20024377 27.40184581 -10 27 C-8.90000272 23.81104604 -7.79424309 20.62411844 -6.6875 17.4375 C-6.37876953 16.54224609 -6.07003906 15.64699219 -5.75195312 14.72460938 C-4.01145543 9.72296862 -2.15653361 4.83727077 0 0 Z " fill="#955318" transform="translate(654,191)"/>
<path d="M0 0 C2.60137611 2.60137611 3.43798263 5.50923192 4.63671875 8.90625 C4.88041702 9.58675415 5.1241153 10.2672583 5.37519836 10.96838379 C5.8881921 12.40644398 6.39822695 13.84556262 6.90551758 15.28564453 C7.68567807 17.49484079 8.47991651 19.69862227 9.27539062 21.90234375 C9.77169442 23.29917352 10.26716576 24.6962994 10.76171875 26.09375 C11.0012175 26.75524048 11.24071625 27.41673096 11.48747253 28.0982666 C12.0498539 29.71306877 12.53242665 31.35524044 13 33 C12.67 33.66 12.34 34.32 12 35 C11.33355469 34.59007812 10.66710937 34.18015625 9.98046875 33.7578125 C3.37626272 29.89689205 -2.4001104 27.85259883 -10 27 C-8.27172783 20.6933226 -6.16302164 14.55894941 -3.875 8.4375 C-3.60929199 7.72271484 -3.34358398 7.00792969 -3.06982422 6.27148438 C-1.12600343 1.12600343 -1.12600343 1.12600343 0 0 Z " fill="#955318" transform="translate(961,191)"/>
<path d="M0 0 C2.60137611 2.60137611 3.43798263 5.50923192 4.63671875 8.90625 C4.88041702 9.58675415 5.1241153 10.2672583 5.37519836 10.96838379 C5.8881921 12.40644398 6.39822695 13.84556262 6.90551758 15.28564453 C7.68567807 17.49484079 8.47991651 19.69862227 9.27539062 21.90234375 C9.77169442 23.29917352 10.26716576 24.6962994 10.76171875 26.09375 C11.0012175 26.75524048 11.24071625 27.41673096 11.48747253 28.0982666 C12.0498539 29.71306877 12.53242665 31.35524044 13 33 C12.67 33.66 12.34 34.32 12 35 C11.33355469 34.59007812 10.66710938 34.18015625 9.98046875 33.7578125 C3.37626272 29.89689205 -2.4001104 27.85259883 -10 27 C-8.27172783 20.6933226 -6.16302164 14.55894941 -3.875 8.4375 C-3.60929199 7.72271484 -3.34358398 7.00792969 -3.06982422 6.27148438 C-1.12600343 1.12600343 -1.12600343 1.12600343 0 0 Z " fill="#955318" transform="translate(1199,68)"/>
<path d="M0 0 C2.60137611 2.60137611 3.43798263 5.50923192 4.63671875 8.90625 C4.88041702 9.58675415 5.1241153 10.2672583 5.37519836 10.96838379 C5.8881921 12.40644398 6.39822695 13.84556262 6.90551758 15.28564453 C7.68567807 17.49484079 8.47991651 19.69862227 9.27539062 21.90234375 C9.77169442 23.29917352 10.26716576 24.6962994 10.76171875 26.09375 C11.0012175 26.75524048 11.24071625 27.41673096 11.48747253 28.0982666 C12.0498539 29.71306877 12.53242665 31.35524044 13 33 C12.67 33.66 12.34 34.32 12 35 C11.33355469 34.59007812 10.66710937 34.18015625 9.98046875 33.7578125 C3.37626272 29.89689205 -2.4001104 27.85259883 -10 27 C-8.27172783 20.6933226 -6.16302164 14.55894941 -3.875 8.4375 C-3.60929199 7.72271484 -3.34358398 7.00792969 -3.06982422 6.27148438 C-1.12600343 1.12600343 -1.12600343 1.12600343 0 0 Z " fill="#955318" transform="translate(811,68)"/>
<path d="M0 0 C30.53220289 -0.11688312 61.05490274 -0.04797089 91.58396149 0.40571976 C93.73627803 0.43729867 95.88861126 0.46734782 98.04095459 0.49703979 C102.10552694 0.55363475 106.16993847 0.6179518 110.234375 0.68359375 C111.42183319 0.70031128 112.60929138 0.71702881 113.83273315 0.73425293 C121.91505929 0.87623305 129.94292503 1.35124021 138 2 C138 2.33 138 2.66 138 3 C124.93751059 3.03062384 111.8750204 3.05098483 98.8125 3.0625 C97.84830265 3.06335602 96.8841053 3.06421204 95.89068985 3.06509399 C63.91452692 3.09017645 31.96664034 2.83451064 0 2 C0 1.34 0 0.68 0 0 Z " fill="#EBAC40" transform="translate(916,320)"/>
<path d="M0 0 C0 0.33 0 0.66 0 1 C-20.2931895 2.8191149 -40.38592804 3.28787937 -60.74261475 3.19561768 C-63.76861485 3.18473602 -66.79457087 3.18519182 -69.82058716 3.18563652 C-85.56880635 3.18501225 -101.27985255 3.04889497 -117 2 C-117 1.67 -117 1.34 -117 1 C-107.50366323 0.86641288 -98.00728963 0.73591055 -88.5108633 0.60884857 C-84.09633308 0.54969591 -79.68181934 0.48966426 -75.26733398 0.42724609 C-50.17669869 0.07335236 -25.09309044 -0.06812758 0 0 Z " fill="#D08F33" transform="translate(638,322)"/>
<path d="M0 0 C0 0.33 0 0.66 0 1 C-1.98 1 -3.96 1 -6 1 C-6 1.66 -6 2.32 -6 3 C-13.79018788 3.02340894 -21.58036717 3.04105792 -29.37058163 3.05181217 C-32.98982442 3.05697965 -36.60904276 3.06396231 -40.22827148 3.07543945 C-70.99186123 3.17053406 -70.99186123 3.17053406 -85 2 C-85 1.67 -85 1.34 -85 1 C-77.46112676 0.86714701 -69.92221563 0.73664285 -62.383255 0.60884857 C-58.87966979 0.549391 -55.37610008 0.48923079 -51.87255859 0.42724609 C-34.58086415 0.12190108 -17.29497046 -0.08094564 0 0 Z " fill="#B06B22" transform="translate(842,322)"/>
<path d="M0 0 C27.01031286 -0.1984481 53.99787819 0.37880581 81 1 C81 1.33 81 1.66 81 2 C45.36 2.495 45.36 2.495 9 3 C9 2.34 9 1.68 9 1 C6.03 1 3.06 1 0 1 C0 0.67 0 0.34 0 0 Z " fill="#AA641F" transform="translate(937,322)"/>
<path d="M0 0 C0.66 0.33 1.32 0.66 2 1 C2 1.99 2 2.98 2 4 C3.32 4.66 4.64 5.32 6 6 C5.52797514 10.24822374 3.03344482 12.19989709 0 15 C-0.86625 14.21625 -1.7325 13.4325 -2.625 12.625 C-5.55056447 10.16613272 -8.27536762 8.97549896 -12 8 C-11.484375 7.7525 -10.96875 7.505 -10.4375 7.25 C-4.32952516 4.55799979 -4.32952516 4.55799979 0 0 Z " fill="#EBAC41" transform="translate(902,316)"/>
<path d="M0 0 C1.8125 0.9375 1.8125 0.9375 2.8125 3.9375 C4.82758358 4.67073796 4.82758358 4.67073796 6.8125 4.9375 C6.8125 5.5975 6.8125 6.2575 6.8125 6.9375 C5.47916667 8.27083333 4.14583333 9.60416667 2.8125 10.9375 C1.76900161 12.57728318 0.75642019 14.23844366 -0.1875 15.9375 C-0.80625 15.1021875 -0.80625 15.1021875 -1.4375 14.25 C-3.21156161 11.84749114 -3.21156161 11.84749114 -5.4375 9.375 C-6.015 8.570625 -6.5925 7.76625 -7.1875 6.9375 C-5.95688693 3.2456608 -4.2901234 -0.12257495 0 0 Z " fill="#E9AA40" transform="translate(891.1875,306.0625)"/>
<path d="M0 0 C0.33 4.95 0.66 9.9 1 15 C-5.17338408 15 -6.36782746 14.52927431 -11 11 C-1.73033708 0 -1.73033708 0 0 0 Z " fill="#7C4829" transform="translate(1824,530)"/>
<path d="M0 0 C3.27275026 3.27275026 5.54738045 6.14588356 8 10 C6.68 10.33 5.36 10.66 4 11 C4 11.99 4 12.98 4 14 C2.35 14.33 0.7 14.66 -1 15 C-1.268125 14.360625 -1.53625 13.72125 -1.8125 13.0625 C-2.88667752 10.66868314 -2.88667752 10.66868314 -6 10 C-4.02 6.7 -2.04 3.4 0 0 Z " fill="#EBAD41" transform="translate(890,326)"/>
<path d="M0 0 C3.77727089 1.81309003 7.37269822 3.9073259 11 6 C9.57092175 8.85815651 7.3584734 9.5496533 4.59375 11 C2.82455659 11.91759769 2.82455659 11.91759769 2 14 C1.34 14 0.68 14 0 14 C-0.33 13.01 -0.66 12.02 -1 11 C-1.99 10.34 -2.98 9.68 -4 9 C-3.46930939 5.17902761 -2.50298434 2.93828597 0 0 Z " fill="#EBAD41" transform="translate(878,317)"/>
<path d="M0 0 C0 3.8455896 -0.96583665 5.74533864 -3 9 C-5.8125 10.5625 -5.8125 10.5625 -9 12 C-11.10130909 13.57240816 -13.02809113 15.26284218 -15 17 C-13.33248852 13.05860922 -10.77289351 10.2107188 -8 7 C-9.485 4.03 -9.485 4.03 -11 1 C-9.68 1 -8.36 1 -7 1 C-6.34 1.99 -5.68 2.98 -5 4 C-3.35 2.68 -1.7 1.36 0 0 Z " fill="#BB7728" transform="translate(896,317)"/>
<path d="M0 0 C0.66 0 1.32 0 2 0 C1.34 2.64 0.68 5.28 0 8 C-1.32 8.33 -2.64 8.66 -4 9 C-2.80100302 5.9168649 -1.52299523 2.93720508 0 0 Z " fill="#DE9E3A" transform="translate(613,230)"/>
<path d="M0 0 C2.46278801 2.46278801 2.99771255 4.70676982 4 8 C3.34 8 2.68 8 2 8 C1.67 8.66 1.34 9.32 1 10 C0.67 6.7 0.34 3.4 0 0 Z " fill="#DE9E3A" transform="translate(1158,229)"/>
<path d="M0 0 C1.0326802 2.78823655 1.04509293 3.8677274 0.0625 6.75 C-0.288125 7.4925 -0.63875 8.235 -1 9 C-2.1875 7.3125 -2.1875 7.3125 -3 5 C-1.625 2.25 -1.625 2.25 0 0 Z " fill="#DE9F3A" transform="translate(1155,112)"/>
<path d="M0 0 C2.46278801 2.46278801 2.99771255 4.70676982 4 8 C3.34 8 2.68 8 2 8 C1.67 8.66 1.34 9.32 1 10 C0.67 6.7 0.34 3.4 0 0 Z " fill="#DE9E3A" transform="translate(539,106)"/>
</svg>
